<?xml version="1.0" encoding="UTF-8"?>
<svg version="1.1" xmlns="http://www.w3.org/2000/svg" width="261" height="180">
<path d="M0 0 C86.13 0 172.26 0 261 0 C261 59.4 261 118.8 261 180 C174.87 180 88.74 180 0 180 C0 120.6 0 61.2 0 0 Z " fill="#EEEDEA" transform="translate(0,0)"/>
<path d="M0 0 C-0.86625 0.97582031 -1.7325 1.95164062 -2.625 2.95703125 C-3.75038727 4.24184839 -4.87536619 5.52702329 -6 6.8125 C-6.57234375 7.45509766 -7.1446875 8.09769531 -7.734375 8.75976562 C-8.27578125 9.38173828 -8.8171875 10.00371094 -9.375 10.64453125 C-9.87773437 11.21534424 -10.38046875 11.78615723 -10.8984375 12.37426758 C-12.28046943 14.08663136 -12.28046943 14.08663136 -12 17 C-7.38 17.66 -2.76 18.32 2 19 C2 30.88 2 42.76 2 55 C-84.13 55 -170.26 55 -259 55 C-259 42.46 -259 29.92 -259 17 C-253.72 17.66 -248.44 18.32 -243 19 C-219.75566874 20.3630935 -201.84975138 16.40619547 -180.98828125 6.3046875 C-170.24049453 1.21167046 -160.17933742 -0.87850011 -148.30859375 1.55078125 C-138.93712944 4.89660015 -130.24900461 11.44265072 -122.0546875 16.99609375 C-106.04453975 27.72528232 -86.42239063 33.49667961 -67.19677734 30.04321289 C-52.81663039 26.98350797 -40.93876114 19.70955688 -28.59667969 12.01757812 C-5.10598063 -2.55299032 -5.10598063 -2.55299032 0 0 Z " fill="#B11733" transform="translate(259,125)"/>
<path d="M0 0 C1.12341797 0.63615234 1.12341797 0.63615234 2.26953125 1.28515625 C6.05250582 3.47915927 9.73405504 5.81971275 13.39453125 8.2109375 C33.27502332 21.19688469 53.27663169 28.49340673 77.37744141 24.61767578 C91.32003329 21.34072474 103.65020588 12.62613006 115.73657227 5.28979492 C131.16725473 -4 131.16725473 -4 136 -4 C136 6.89 136 17.78 136 29 C49.87 29 -36.26 29 -125 29 C-125 22.73 -125 16.46 -125 10 C-118 11 -118 11 -114.66015625 11.75390625 C-89.55071442 17.39739643 -65.95491554 13.99752791 -43.01123047 2.953125 C-40.0858886 1.5668013 -37.11247813 0.30818785 -34.125 -0.9375 C-33.22007813 -1.31777344 -32.31515625 -1.69804687 -31.3828125 -2.08984375 C-21.46197842 -5.87927709 -9.09191936 -5.55905926 0 0 Z " fill="#F1EEEA" transform="translate(125,151)"/>
<path d="M0 0 C-0.84304688 0.97582031 -1.68609375 1.95164062 -2.5546875 2.95703125 C-3.66154564 4.24211231 -4.76831167 5.5272727 -5.875 6.8125 C-6.43058594 7.45509766 -6.98617187 8.09769531 -7.55859375 8.75976562 C-8.09355469 9.38173828 -8.62851563 10.00371094 -9.1796875 10.64453125 C-9.67194824 11.21534424 -10.16420898 11.78615723 -10.67138672 12.37426758 C-12.18616007 14.1741464 -12.18616007 14.1741464 -14 17 C-16.27734375 18.3515625 -16.27734375 18.3515625 -18.9375 19.625 C-19.81277344 20.05039063 -20.68804687 20.47578125 -21.58984375 20.9140625 C-24 22 -24 22 -27 23 C-27 23.66 -27 24.32 -27 25 C-32.53526945 29.29371369 -38.30853217 32.39837847 -45.0234375 34.3203125 C-47.2805957 34.99435027 -47.2805957 34.99435027 -49.9375 37.0625 C-57.18848134 41.64985554 -66.22942928 41.31626696 -74.5625 41.25 C-76.02719727 41.26160156 -76.02719727 41.26160156 -77.52148438 41.2734375 C-83.64826541 41.25704477 -89.06913494 40.54239215 -95 39 C-95 38.01 -95 37.02 -95 36 C-95.825 35.87625 -96.65 35.7525 -97.5 35.625 C-104.79168876 34.32291272 -110.48992482 32.48754028 -117 29 C-117 28.34 -117 27.68 -117 27 C-117.61488281 26.80664062 -118.22976562 26.61328125 -118.86328125 26.4140625 C-119.67152344 26.15367187 -120.47976562 25.89328125 -121.3125 25.625 C-122.11300781 25.36976563 -122.91351563 25.11453125 -123.73828125 24.8515625 C-126 24 -126 24 -129 22 C-129 21.34 -129 20.68 -129 20 C-129.639375 19.773125 -130.27875 19.54625 -130.9375 19.3125 C-134.39862287 17.82916163 -137.56794501 16.01837527 -140.81640625 14.12109375 C-145.37167927 11.78233998 -149.70535361 11.84236366 -154.75 11.875 C-155.46285156 11.87693359 -156.17570312 11.87886719 -156.91015625 11.88085938 C-161.69378987 11.92021285 -166.28606031 12.21434339 -171 13 C-171 13.66 -171 14.32 -171 15 C-174.08809695 16.76462683 -175.23312136 17 -179 17 C-179 17.99 -179 18.98 -179 20 C-182.82774448 21.49391862 -186.66304688 22.96741156 -190.5 24.4375 C-191.57765625 24.85837891 -192.6553125 25.27925781 -193.765625 25.71289062 C-204.20877374 29.69274914 -212.87218902 30.16993894 -224 30.125 C-225.19447754 30.12161621 -226.38895508 30.11823242 -227.61962891 30.11474609 C-252.55378767 29.96960343 -252.55378767 29.96960343 -259 27 C-259 23.7 -259 20.4 -259 17 C-257.70255859 17.2165625 -257.70255859 17.2165625 -256.37890625 17.4375 C-228.7485898 21.50993149 -206.04294107 18.43661513 -180.98828125 6.3046875 C-170.24049453 1.21167046 -160.17933742 -0.87850011 -148.30859375 1.55078125 C-138.93712944 4.89660015 -130.24900461 11.44265072 -122.0546875 16.99609375 C-106.04453975 27.72528232 -86.42239063 33.49667961 -67.19677734 30.04321289 C-52.81663039 26.98350797 -40.93876114 19.70955688 -28.59667969 12.01757812 C-5.10598063 -2.55299032 -5.10598063 -2.55299032 0 0 Z " fill="#173F98" transform="translate(259,125)"/>
<path d="M0 0 C-0.66 2.64 -1.32 5.28 -2 8 C-3.16402344 8.02126953 -3.16402344 8.02126953 -4.3515625 8.04296875 C-16.90805518 8.59737236 -27.30219234 13.113874 -38.45556641 18.47192383 C-51.55894519 24.66900708 -65.24730333 27.3901165 -79.6875 27.3125 C-80.72898193 27.30976074 -81.77046387 27.30702148 -82.84350586 27.30419922 C-94.03089841 27.1540097 -104.28286614 25.14005196 -115 22 C-115 19.03 -115 16.06 -115 13 C-114.31164062 13.15339844 -113.62328125 13.30679688 -112.9140625 13.46484375 C-102.2298796 15.42695241 -91.00928162 15.12179263 -80.1875 15.1875 C-79.05554199 15.20047119 -77.92358398 15.21344238 -76.75732422 15.22680664 C-66.58731085 15.2379596 -57.56199508 13.99339513 -48.1875 10 C-40.81789571 6.88238729 -35.02352486 4.72332673 -27 5 C-27 4.01 -27 3.02 -27 2 C-18.80886579 -2.55063012 -8.95697764 -0.91254474 0 0 Z " fill="#BE1536" transform="translate(115,139)"/>
<path d="M0 0 C0 10.89 0 21.78 0 33 C-16.64069934 33.04010881 -16.64069934 33.04010881 -23.71875 33.04882812 C-28.55372206 33.05481239 -33.38867523 33.06190162 -38.22363281 33.07543945 C-42.120441 33.08628254 -46.01722895 33.09227987 -49.91405106 33.09487724 C-51.40284163 33.09672892 -52.89163107 33.10034463 -54.38041306 33.10573006 C-56.46115285 33.11295934 -58.54180832 33.11399014 -60.62255859 33.11352539 C-61.80836517 33.115746 -62.99417175 33.11796661 -64.21591187 33.12025452 C-67 33 -67 33 -69 32 C-70.87056791 31.7724985 -72.74685958 31.59037189 -74.625 31.4375 C-75.62789062 31.35371094 -76.63078125 31.26992187 -77.6640625 31.18359375 C-78.43492187 31.12300781 -79.20578125 31.06242187 -80 31 C-80 30.67 -80 30.34 -80 30 C-78.80246094 29.98582031 -77.60492188 29.97164062 -76.37109375 29.95703125 C-54.480585 29.42818766 -38.59945516 20.41962815 -20.26342773 9.28979492 C-4.83274527 0 -4.83274527 0 0 0 Z " fill="#E6E4E3" transform="translate(261,147)"/>
<path d="M0 0 C0.73992187 0.40863281 1.47984375 0.81726563 2.2421875 1.23828125 C5.19583412 2.98558502 7.64055823 4.61809312 10 7.125 C12.96237643 9.90222791 16.16403835 10.72134612 20 12 C20 12.66 20 13.32 20 14 C21.36125 14.433125 21.36125 14.433125 22.75 14.875 C26 16 26 16 27.8125 16.96875 C30.56166534 18.26478509 33.2961561 18.91864602 36.25 19.625 C37.32765625 19.88539063 38.4053125 20.14578125 39.515625 20.4140625 C40.33546875 20.60742188 41.1553125 20.80078125 42 21 C42 21.99 42 22.98 42 24 C49.02072641 24.87118503 55.99503228 25.29050282 63.0625 25.5625 C64.11888672 25.60568359 65.17527344 25.64886719 66.26367188 25.69335938 C68.84234879 25.79837337 71.42110435 25.90052877 74 26 C74 26.99 74 27.98 74 29 C66.08 29.33 58.16 29.66 50 30 C49.67 29.01 49.34 28.02 49 27 C47.865625 27.020625 46.73125 27.04125 45.5625 27.0625 C42 27 42 27 41 26 C39.48071962 25.92820036 37.95832518 25.91607993 36.4375 25.9375 C35.61121094 25.94652344 34.78492188 25.95554688 33.93359375 25.96484375 C33.29550781 25.97644531 32.65742188 25.98804688 32 26 C33.32 26.66 34.64 27.32 36 28 C35.67 28.99 35.34 29.98 35 31 C27.78904193 27.6868571 21.26209938 23.940493 14.79931641 19.33178711 C5.41246635 12.68664078 -4.43221404 7.2049777 -16 6 C-16 5.67 -16 5.34 -16 5 C-12.535 4.505 -12.535 4.505 -9 4 C-8.34 2.35 -7.68 0.7 -7 -1 C-20.62230621 -1.25248874 -20.62230621 -1.25248874 -34 1 C-34 1.99 -34 2.98 -34 4 C-37.05263664 4.98120464 -38.94736336 4.98120464 -42 4 C-42 3.34 -42 2.68 -42 2 C-39.36 1.34 -36.72 0.68 -34 0 C-34 -0.66 -34 -1.32 -34 -2 C-22.97783786 -5.67405405 -10.26445496 -5.6840799 0 0 Z " fill="#A01B40" transform="translate(122,140)"/>
<path d="M0 0 C-0.66 1.32 -1.32 2.64 -2 4 C-1.34 4.33 -0.68 4.66 0 5 C-1.25 6.5625 -1.25 6.5625 -3 8 C-5.1875 7.6875 -5.1875 7.6875 -7 7 C-7.185625 7.9590625 -7.185625 7.9590625 -7.375 8.9375 C-7.58125 9.618125 -7.7875 10.29875 -8 11 C-16.85887073 15.42943537 -34.47581654 12.7469816 -43.7734375 9.8671875 C-46.65135309 8.74631511 -49.33093256 7.556956 -52 6 C-52 5.01 -52 4.02 -52 3 C-54.97 2.505 -54.97 2.505 -58 2 C-56 0 -56 0 -53.87109375 -0.23046875 C-53.06800781 -0.21628906 -52.26492187 -0.20210937 -51.4375 -0.1875 C-50.22900391 -0.17783203 -50.22900391 -0.17783203 -48.99609375 -0.16796875 C-47 0 -47 0 -46 1 C-44.845 1.144375 -43.69 1.28875 -42.5 1.4375 C-41.345 1.623125 -40.19 1.80875 -39 2 C-38.67 2.66 -38.34 3.32 -38 4 C-30.08 4 -22.16 4 -14 4 C-14 3.01 -14 2.02 -14 1 C-12.04310963 0.63794536 -10.08442332 0.28558579 -8.125 -0.0625 C-6.48917969 -0.35833984 -6.48917969 -0.35833984 -4.8203125 -0.66015625 C-2 -1 -2 -1 0 0 Z " fill="#B31332" transform="translate(210,165)"/>
<path d="M0 0 C1.83401808 0.2873295 3.66718144 0.58011583 5.5 0.875 C7.03140625 1.11863281 7.03140625 1.11863281 8.59375 1.3671875 C12 2 12 2 15.671875 3.02734375 C20.04864433 4.12931099 24.1618958 4.25748808 28.65625 4.1953125 C29.44398804 4.1924826 30.23172607 4.18965271 31.04333496 4.18673706 C33.52905264 4.17565169 36.0143935 4.1505701 38.5 4.125 C40.19791142 4.1149551 41.89582855 4.10583191 43.59375 4.09765625 C47.72930914 4.07575071 51.86459096 4.04130326 56 4 C56 5.32 56 6.64 56 8 C57.98 8 59.96 8 62 8 C59.04496433 9.67023755 56.68683399 10.30036166 53.3125 10.5625 C50.35818712 10.59506307 50.35818712 10.59506307 48 12 C41.06001219 12.43249199 34.5526245 12.43818586 28 10 C28 10.66 28 11.32 28 12 C26.68 12.33 25.36 12.66 24 13 C24 12.34 24 11.68 24 11 C21.36 11 18.72 11 16 11 C16 10.34 16 9.68 16 9 C14.081875 9.061875 14.081875 9.061875 12.125 9.125 C9.9453125 9.1953125 9.9453125 9.1953125 8 9 C7.34 8.34 6.68 7.68 6 7 C2.91652174 6.83318891 2.91652174 6.83318891 0 7 C0 4.69 0 2.38 0 0 Z " fill="#B0132E" transform="translate(0,152)"/>
<path d="M0 0 C0.99 0.495 0.99 0.495 2 1 C-0.97 2.65 -3.94 4.3 -7 6 C-6.01 6.66 -5.02 7.32 -4 8 C-4 8.99 -4 9.98 -4 11 C-2.6696875 10.505 -2.6696875 10.505 -1.3125 10 C1.70923347 9.08777857 3.88373706 8.81669042 7 9 C-9.9587333 20.3058222 -35.70905151 20.37774624 -55.0625 16.625 C-59.77305806 15.61230674 -64.37910196 14.35389369 -69 13 C-69 12.34 -69 11.68 -69 11 C-65.535 10.505 -65.535 10.505 -62 10 C-61.67 10.99 -61.34 11.98 -61 13 C-58.36 13 -55.72 13 -53 13 C-53 13.66 -53 14.32 -53 15 C-50.36 15 -47.72 15 -45 15 C-45 15.66 -45 16.32 -45 17 C-43.68 16.67 -42.36 16.34 -41 16 C-41 15.34 -41 14.68 -41 14 C-40.113125 14.165 -39.22625 14.33 -38.3125 14.5 C-32.60152403 15.32426457 -26.75378437 15.28351981 -21 15 C-20.67 14.67 -20.34 14.34 -20 14 C-18.48530552 13.76807135 -16.96245438 13.58784762 -15.4375 13.4375 C-14.61121094 13.35371094 -13.78492188 13.26992187 -12.93359375 13.18359375 C-12.29550781 13.12300781 -11.65742187 13.06242188 -11 13 C-11.66 12.67 -12.32 12.34 -13 12 C-13 10.68 -13 9.36 -13 8 C-13.77005371 8.24230347 -13.77005371 8.24230347 -14.55566406 8.48950195 C-19.76533774 9.57753908 -25.22554949 9.18589232 -30.53417969 9.18530273 C-32.72871599 9.18747889 -34.9227407 9.20562371 -37.1171875 9.22460938 C-43.99434567 9.2513676 -50.40103132 9.18526057 -57 7 C-57 6.67 -57 6.34 -57 6 C-55.96705811 6.01047363 -54.93411621 6.02094727 -53.86987305 6.03173828 C-49.98774773 6.06831016 -46.10563719 6.09103387 -42.22338867 6.10986328 C-40.55246407 6.11983703 -38.88155653 6.1334209 -37.21069336 6.15087891 C-20.43370171 6.41986668 -20.43370171 6.41986668 -4.4375 1.8125 C-1.99609375 0.70703125 -1.99609375 0.70703125 0 0 Z " fill="#A11D3A" transform="translate(69,148)"/>
<path d="M0 0 C0.8765625 0.13277344 1.753125 0.26554688 2.65625 0.40234375 C15.07319999 2.13112642 27.47733348 2.61415632 40 3 C40 3.33 40 3.66 40 4 C37.36 4 34.72 4 32 4 C33.32 4.66 34.64 5.32 36 6 C35.34 6.66 34.68 7.32 34 8 C30.7421875 7.9765625 30.7421875 7.9765625 26.875 7.625 C25.59367187 7.51414063 24.31234375 7.40328125 22.9921875 7.2890625 C21.51105469 7.14597656 21.51105469 7.14597656 20 7 C21.32 6.34 22.64 5.68 24 5 C20.7 5.33 17.4 5.66 14 6 C14.99 6.66 15.98 7.32 17 8 C16.01 8.33 15.02 8.66 14 9 C14 9.66 14 10.32 14 11 C19.42631812 10.90605431 24.85221156 10.79987084 30.27807617 10.68261719 C32.12176046 10.64446642 33.96551566 10.6095899 35.80932617 10.578125 C38.46819301 10.53217105 41.12657753 10.4742284 43.78515625 10.4140625 C44.60210464 10.40251129 45.41905304 10.39096008 46.26075745 10.37905884 C51.20395819 10.25318122 55.28256851 9.45779527 60 8 C62.4375 8.375 62.4375 8.375 64 9 C54.31283387 12.97865752 45.38361521 13.16693355 35 13.125 C33.80552246 13.12161621 32.61104492 13.11823242 31.38037109 13.11474609 C6.44621233 12.96960343 6.44621233 12.96960343 0 10 C0 6.7 0 3.4 0 0 Z " fill="#0E409A" transform="translate(0,142)"/>
<path d="M0 0 C2.97 0 5.94 0 9 0 C9 7.92 9 15.84 9 24 C-4.75 23.25 -4.75 23.25 -7 21 C-2.71748905 15.62295151 1.57202877 10.25821584 6 5 C3.69 4.67 1.38 4.34 -1 4 C-0.67 2.68 -0.34 1.36 0 0 Z " fill="#DEE5EA" transform="translate(252,120)"/>
<path d="M0 0 C-0.33 0.66 -0.66 1.32 -1 2 C-2.32 2 -3.64 2 -5 2 C-5.33 3.65 -5.66 5.3 -6 7 C-7.32 7 -8.64 7 -10 7 C-11.62880426 8.36819558 -12.86504282 9.8272548 -14.171875 11.5 C-16.79957432 13.65606098 -19.38352792 14.00053551 -22.6875 14.6875 C-24.45673828 15.06455078 -24.45673828 15.06455078 -26.26171875 15.44921875 C-27.16535156 15.63097656 -28.06898437 15.81273437 -29 16 C-29 14.68 -29 13.36 -29 12 C-29.99 11.34 -30.98 10.68 -32 10 C-28.70276054 7.93492309 -25.36914584 5.94556309 -22 4 C-21.27039063 3.57460937 -20.54078125 3.14921875 -19.7890625 2.7109375 C-13.32513189 -0.62916048 -7.15184978 -0.39793909 0 0 Z " fill="#B41333" transform="translate(93,144)"/>
<path d="M0 0 C0.98484375 0.01804687 1.9696875 0.03609375 2.984375 0.0546875 C4.10585937 0.08949219 4.10585937 0.08949219 5.25 0.125 C5.25 0.785 5.25 1.445 5.25 2.125 C8.22 2.62 8.22 2.62 11.25 3.125 C10.59 4.775 9.93 6.425 9.25 8.125 C2.98 8.125 -3.29 8.125 -9.75 8.125 C-9.75 9.115 -9.75 10.105 -9.75 11.125 C-16.15 11.49423077 -16.15 11.49423077 -19.1875 9.625 C-19.703125 9.13 -20.21875 8.635 -20.75 8.125 C-19.76 7.465 -18.77 6.805 -17.75 6.125 C-18.08 5.465 -18.41 4.805 -18.75 4.125 C-18.14671875 4.00382813 -17.5434375 3.88265625 -16.921875 3.7578125 C-16.12265625 3.59023437 -15.3234375 3.42265625 -14.5 3.25 C-13.71109375 3.08757812 -12.9221875 2.92515625 -12.109375 2.7578125 C-9.75126207 2.22535389 -9.75126207 2.22535389 -7.8125 1.0625 C-5.10770206 -0.16695361 -2.95562623 -0.07037205 0 0 Z " fill="#1440A2" transform="translate(101.75,126.875)"/>
<path d="M0 0 C0.80308594 0.01417969 1.60617188 0.02835938 2.43359375 0.04296875 C3.64208984 0.05263672 3.64208984 0.05263672 4.875 0.0625 C6.87109375 0.23046875 6.87109375 0.23046875 7.87109375 1.23046875 C9.02609375 1.37484375 10.18109375 1.51921875 11.37109375 1.66796875 C12.52609375 1.85359375 13.68109375 2.03921875 14.87109375 2.23046875 C15.20109375 2.89046875 15.53109375 3.55046875 15.87109375 4.23046875 C16.86109375 4.89046875 17.85109375 5.55046875 18.87109375 6.23046875 C18.21109375 6.89046875 17.55109375 7.55046875 16.87109375 8.23046875 C19.91873309 9.24634853 22.21828342 9.42851281 25.4140625 9.546875 C27.0237793 9.6097168 27.0237793 9.6097168 28.66601562 9.67382812 C29.78556641 9.71314453 30.90511719 9.75246094 32.05859375 9.79296875 C33.18974609 9.83615234 34.32089844 9.87933594 35.48632812 9.92382812 C38.28112729 10.02995974 41.07601537 10.1320126 43.87109375 10.23046875 C43.87109375 10.89046875 43.87109375 11.55046875 43.87109375 12.23046875 C13.39267648 12.95139201 13.39267648 12.95139201 1.87109375 6.23046875 C1.87109375 5.24046875 1.87109375 4.25046875 1.87109375 3.23046875 C-1.09890625 2.73546875 -1.09890625 2.73546875 -4.12890625 2.23046875 C-2.12890625 0.23046875 -2.12890625 0.23046875 0 0 Z " fill="#AC132F" transform="translate(156.12890625,164.76953125)"/>
<path d="M0 0 C1.98 0.66 3.96 1.32 6 2 C6 2.66 6 3.32 6 4 C6.9075 4.28875 7.815 4.5775 8.75 4.875 C12 6 12 6 13.8125 6.96875 C16.56166534 8.26478509 19.2961561 8.91864602 22.25 9.625 C23.32765625 9.88539063 24.4053125 10.14578125 25.515625 10.4140625 C26.33546875 10.60742188 27.1553125 10.80078125 28 11 C28 11.99 28 12.98 28 14 C35.02072641 14.87118503 41.99503228 15.29050282 49.0625 15.5625 C50.11888672 15.60568359 51.17527344 15.64886719 52.26367188 15.69335938 C54.84234879 15.79837337 57.42110435 15.90052877 60 16 C60 16.99 60 17.98 60 19 C52.08 19.33 44.16 19.66 36 20 C35.505 18.515 35.505 18.515 35 17 C32.69 17 30.38 17 28 17 C27.67 16.01 27.34 15.02 27 14 C26.01 14 25.02 14 24 14 C24 13.34 24 12.68 24 12 C23.32453125 11.87882813 22.6490625 11.75765625 21.953125 11.6328125 C21.06109375 11.46523437 20.1690625 11.29765625 19.25 11.125 C18.36828125 10.96257812 17.4865625 10.80015625 16.578125 10.6328125 C14.13052256 10.03203736 12.19400143 9.22002883 10 8 C10 7.34 10 6.68 10 6 C8.9171875 5.8453125 8.9171875 5.8453125 7.8125 5.6875 C4.72206579 4.93206053 2.58256159 3.84468685 0 2 C0 1.34 0 0.68 0 0 Z " fill="#7F2154" transform="translate(136,150)"/>
<path d="M0 0 C2.33287367 0.16172434 4.03311585 -0.15576026 6.25390625 -0.84375 C6.25390625 0.47625 6.25390625 1.79625 6.25390625 3.15625 C9.98004778 2.03770414 9.98004778 2.03770414 12.25390625 -0.84375 C13.90390625 -0.84375 15.55390625 -0.84375 17.25390625 -0.84375 C12.31021328 4.34712762 8.23399489 5.88849886 1.25390625 7.15625 C0.75890625 5.67125 0.75890625 5.67125 0.25390625 4.15625 C-6.96510546 2.87297676 -6.96510546 2.87297676 -13.74609375 5.15625 C-14.07609375 5.81625 -14.40609375 6.47625 -14.74609375 7.15625 C-15.73609375 7.15625 -16.72609375 7.15625 -17.74609375 7.15625 C-17.74609375 6.49625 -17.74609375 5.83625 -17.74609375 5.15625 C-20.38609375 5.15625 -23.02609375 5.15625 -25.74609375 5.15625 C-25.74609375 5.81625 -25.74609375 6.47625 -25.74609375 7.15625 C-28.05609375 6.82625 -30.36609375 6.49625 -32.74609375 6.15625 C-29.87116063 4.23962792 -28.46860474 3.73769242 -25.18359375 3.12109375 C-23.86488281 2.86682617 -23.86488281 2.86682617 -22.51953125 2.60742188 C-21.14667969 2.3531543 -21.14667969 2.3531543 -19.74609375 2.09375 C-17.93328245 1.75033716 -16.12076821 1.40535147 -14.30859375 1.05859375 C-13.50550781 0.90898193 -12.70242187 0.75937012 -11.875 0.60522461 C-7.31354946 -0.3567602 -4.64464567 -0.69158853 0 0 Z " fill="#17458D" transform="translate(209.74609375,152.84375)"/>
<path d="M0 0 C3.63 0 7.26 0 11 0 C7.20439244 3.17019495 3.2270023 5.88465559 -1 8.4375 C-1.648479 8.82929443 -2.29695801 9.22108887 -2.96508789 9.62475586 C-9.05354636 13.20319679 -15.29904032 15.75127997 -22 18 C-21.67 14.7 -21.34 11.4 -21 8 C-19.68 8.99 -18.36 9.98 -17 11 C-16.34 10.01 -15.68 9.02 -15 8 C-13.96875 8.226875 -12.9375 8.45375 -11.875 8.6875 C-7.48183434 9.04178755 -5.73682136 8.17257056 -2 6 C-1.34 6 -0.68 6 0 6 C-0.185625 5.38125 -0.37125 4.7625 -0.5625 4.125 C-1 2 -1 2 0 0 Z " fill="#D0DEEA" transform="translate(221,136)"/>
<path d="M0 0 C-9.68716613 3.97865752 -18.61638479 4.16693355 -29 4.125 C-30.19447754 4.12161621 -31.38895508 4.11823242 -32.61962891 4.11474609 C-57.55378767 3.96960343 -57.55378767 3.96960343 -64 1 C-64 0.67 -64 0.34 -64 0 C-59.38 0 -54.76 0 -50 0 C-50 0.66 -50 1.32 -50 2 C-44.57368188 1.90605431 -39.14778844 1.79987084 -33.72192383 1.68261719 C-31.87823954 1.64446642 -30.03448434 1.6095899 -28.19067383 1.578125 C-25.53180699 1.53217105 -22.87342247 1.4742284 -20.21484375 1.4140625 C-19.39789536 1.40251129 -18.58094696 1.39096008 -17.73924255 1.37905884 C-12.13600328 1.23637347 -5.07555884 -2.03022354 0 0 Z " fill="#373180" transform="translate(64,151)"/>
<path d="M0 0 C0.2475 1.175625 0.2475 1.175625 0.5 2.375 C1.70396899 5.1093471 1.70396899 5.1093471 3.9140625 5.77734375 C5.92516699 6.26413052 7.962638 6.63853255 10 7 C5.39820832 9.48405173 0.43790043 10.98521573 -4.4921875 12.68359375 C-8.02302022 13.92390401 -8.02302022 13.92390401 -11.2578125 15.72265625 C-14 17 -14 17 -17 16 C-14 14 -14 14 -12 14 C-11.67 13.01 -11.34 12.02 -11 11 C-9.68 11.33 -8.36 11.66 -7 12 C-6.87625 11.195625 -6.7525 10.39125 -6.625 9.5625 C-6.41875 8.716875 -6.2125 7.87125 -6 7 C-5.34 6.67 -4.68 6.34 -4 6 C-4.66 6 -5.32 6 -6 6 C-6 4.68 -6 3.36 -6 2 C-2.25 0 -2.25 0 0 0 Z " fill="#B01935" transform="translate(94,139)"/>
<path d="M0 0 C2 1.5 2 1.5 3 3 C2 6 2 6 0.328125 7.16796875 C-6.57251908 10.55343511 -6.57251908 10.55343511 -11 10 C-11 8.35 -11 6.7 -11 5 C-11.99 4.67 -12.98 4.34 -14 4 C-9.1373462 0.10987696 -6.23706342 -0.71572859 0 0 Z " fill="#1344A4" transform="translate(243,134)"/>
<path d="M0 0 C1.41619168 0.19105453 2.83277565 0.37926291 4.25 0.5625 C5.61125 0.7790625 5.61125 0.7790625 7 1 C7 1.99 7 2.98 7 4 C1.72 6.31 -3.56 8.62 -9 11 C-9.33 10.01 -9.66 9.02 -10 8 C-8.948125 7.71125 -7.89625 7.4225 -6.8125 7.125 C-3.77181289 6.22774807 -0.91287656 5.23576581 2 4 C2 3.34 2 2.68 2 2 C-4.93302093 1.77268784 -11.2168636 2.57997892 -18 4 C-18 4.66 -18 5.32 -18 6 C-18.66 6 -19.32 6 -20 6 C-20.33 6.99 -20.66 7.98 -21 9 C-22.32 8.67 -23.64 8.34 -25 8 C-24.01 7.67 -23.02 7.34 -22 7 C-22 6.34 -22 5.68 -22 5 C-14.91840408 -1.18856281 -8.93607495 -1.60423225 0 0 Z " fill="#A02A40" transform="translate(254,143)"/>
<path d="M0 0 C0 0.33 0 0.66 0 1 C-1.18335938 0.91621094 -2.36671875 0.83242187 -3.5859375 0.74609375 C-13.25110825 0.106111 -22.53650966 -0.50379341 -32 2 C-32 2.99 -32 3.98 -32 5 C-35.05263664 5.98120464 -36.94736336 5.98120464 -40 5 C-40 4.34 -40 3.68 -40 3 C-37.36 2.34 -34.72 1.68 -32 1 C-32 0.34 -32 -0.32 -32 -1 C-21.95287543 -4.34904152 -9.58547511 -4.79273755 0 0 Z " fill="#7F255B" transform="translate(120,139)"/>
<path d="M0 0 C0.5625 1.9375 0.5625 1.9375 1 4 C0.67 4.33 0.34 4.66 0 5 C0.66 5.66 1.32 6.32 2 7 C-7.41002278 9.29612756 -7.41002278 9.29612756 -12 9 C-12 8.34 -12 7.68 -12 7 C-17.94 7.495 -17.94 7.495 -24 8 C-20 6 -20 6 -16.125 5.125 C-13.01191801 4.41014414 -11.63669918 3.75295544 -8.875 1.875 C-5.59183982 -0.26619142 -3.83928619 -0.3656463 0 0 Z " fill="#9C1D4C" transform="translate(220,158)"/>
<path d="M0 0 C14.52 0 29.04 0 44 0 C39.50130235 3.37402324 38.31028433 3.37601477 32.890625 3.36328125 C32.20498474 3.36377975 31.51934448 3.36427826 30.81292725 3.36479187 C29.3638621 3.36245613 27.91479254 3.35275696 26.46582031 3.33618164 C24.27110576 3.31272557 22.07761951 3.31560722 19.8828125 3.32226562 C13.01693037 3.30729385 6.58684218 3.16400182 0 1 C0 0.67 0 0.34 0 0 Z " fill="#7B1F54" transform="translate(12,154)"/>
<path d="M0 0 C1.65 0 3.3 0 5 0 C5 0.66 5 1.32 5 2 C6.32 2.33 7.64 2.66 9 3 C9.33 4.32 9.66 5.64 10 7 C5.10473977 9.09796867 2.89794186 8.89920194 -2 7 C-4.32694964 6.62468554 -6.65976685 6.28082798 -9 6 C-9 5.67 -9 5.34 -9 5 C-7.329375 4.87625 -7.329375 4.87625 -5.625 4.75 C-1.94246056 4.42126213 -1.94246056 4.42126213 -0.5625 1.9375 C-0.376875 1.298125 -0.19125 0.65875 0 0 Z " fill="#AC1835" transform="translate(115,140)"/>
<path d="M0 0 C1.010625 0.53625 2.02125 1.0725 3.0625 1.625 C4.0215625 2.305625 4.0215625 2.305625 5 3 C5 3.66 5 4.32 5 5 C3.68 4.67 2.36 4.34 1 4 C1 3.34 1 2.68 1 2 C0.443125 2.20625 -0.11375 2.4125 -0.6875 2.625 C-3.659538 3.10695211 -5.31979941 2.26565028 -8 1 C-8 0.34 -8 -0.32 -8 -1 C-9.89685547 -0.96519531 -9.89685547 -0.96519531 -11.83203125 -0.9296875 C-13.4921816 -0.91092874 -15.15233833 -0.89272865 -16.8125 -0.875 C-17.64587891 -0.85824219 -18.47925781 -0.84148437 -19.33789062 -0.82421875 C-20.14033203 -0.81777344 -20.94277344 -0.81132812 -21.76953125 -0.8046875 C-22.87711792 -0.78897705 -22.87711792 -0.78897705 -24.00708008 -0.77294922 C-26 -1 -26 -1 -29 -3 C-19.68481284 -5.94541908 -8.28695285 -5.05613643 0 0 Z " fill="#F6DCDB" transform="translate(125,151)"/>
<path d="M0 0 C0.99 0.33 1.98 0.66 3 1 C3 1.66 3 2.32 3 3 C4.98 3 6.96 3 9 3 C6.10403104 4.93064597 3.47225068 6.09100671 0.25 7.375 C-3.33558052 8.83611322 -6.74414697 10.31580364 -10.0625 12.3125 C-13 14 -13 14 -16 14 C-15.38722388 11.03824877 -14.74627478 9.61941217 -13 7 C-9.9609375 6.48828125 -9.9609375 6.48828125 -6.375 6.3125 C-5.18648437 6.24675781 -3.99796875 6.18101563 -2.7734375 6.11328125 C-1.85820312 6.07589844 -0.94296875 6.03851563 0 6 C0 4.02 0 2.04 0 0 Z " fill="#D3DDEF" transform="translate(248,121)"/>
<path d="M0 0 C1.98 0.66 3.96 1.32 6 2 C6 2.66 6 3.32 6 4 C6.9075 4.28875 7.815 4.5775 8.75 4.875 C12 6 12 6 13.8125 6.96875 C16.56166534 8.26478509 19.2961561 8.91864602 22.25 9.625 C23.32765625 9.88539063 24.4053125 10.14578125 25.515625 10.4140625 C26.33546875 10.60742188 27.1553125 10.80078125 28 11 C28 11.99 28 12.98 28 14 C30.97 14.33 33.94 14.66 37 15 C37 15.33 37 15.66 37 16 C32.07872966 16.16682272 28.49656104 16.24828052 24 14 C24 13.34 24 12.68 24 12 C23.32453125 11.87882813 22.6490625 11.75765625 21.953125 11.6328125 C21.06109375 11.46523437 20.1690625 11.29765625 19.25 11.125 C18.36828125 10.96257812 17.4865625 10.80015625 16.578125 10.6328125 C14.13052256 10.03203736 12.19400143 9.22002883 10 8 C10 7.34 10 6.68 10 6 C8.9171875 5.8453125 8.9171875 5.8453125 7.8125 5.6875 C4.72206579 4.93206053 2.58256159 3.84468685 0 2 C0 1.34 0 0.68 0 0 Z " fill="#462F77" transform="translate(136,150)"/>
<path d="M0 0 C4.85232062 1.80229051 9.69565456 3.8695682 13 8 C13.6875 10.1875 13.6875 10.1875 14 12 C9.33367936 13.55544021 5.53441459 11.51147153 1 10 C1 9.34 1 8.68 1 8 C1.99 7.67 2.98 7.34 4 7 C3.73323796 5.01508358 3.73323796 5.01508358 3 3 C2.01 2.67 1.02 2.34 0 2 C0 1.34 0 0.68 0 0 Z " fill="#A91E3F" transform="translate(120,140)"/>
<path d="M0 0 C4.24292532 1.60630825 8.27025107 3.5768162 12.3125 5.625 C12.95767578 5.94984375 13.60285156 6.2746875 14.26757812 6.609375 C15.84597541 7.40441956 17.42311694 8.20195634 19 9 C19 9.33 19 9.66 19 10 C16.625 10.125 16.625 10.125 14 10 C13.34 9.34 12.68 8.68 12 8 C10.4840625 7.7525 10.4840625 7.7525 8.9375 7.5 C7.968125 7.335 6.99875 7.17 6 7 C5.67 6.34 5.34 5.68 5 5 C2.97536745 4.34786708 2.97536745 4.34786708 1 4 C1 4.66 1 5.32 1 6 C1.99 6 2.98 6 4 6 C4.33 6.99 4.66 7.98 5 9 C1.20696275 7.99806563 -1.71536341 7.18975773 -5 5 C-5 4.34 -5 3.68 -5 3 C-5.66 2.67 -6.32 2.34 -7 2 C-5.68 2 -4.36 2 -3 2 C-3 2.66 -3 3.32 -3 4 C-2.01 4 -1.02 4 0 4 C0 2.68 0 1.36 0 0 Z " fill="#323986" transform="translate(135,142)"/>
<path d="M0 0 C0 0.66 0 1.32 0 2 C-0.59167969 2.25394531 -1.18335938 2.50789062 -1.79296875 2.76953125 C-9.45547075 5.99798036 -9.45547075 5.99798036 -16 11 C-16.845625 11.309375 -17.69125 11.61875 -18.5625 11.9375 C-19.366875 12.288125 -20.17125 12.63875 -21 13 C-21.33 13.99 -21.66 14.98 -22 16 C-23.98 16 -25.96 16 -28 16 C-26.83492936 12.50478807 -26.31160653 12.31614504 -23.2109375 10.625 C-22.43363281 10.19703125 -21.65632812 9.7690625 -20.85546875 9.328125 C-19.62763672 8.67070312 -19.62763672 8.67070312 -18.375 8 C-17.18197266 7.34257812 -17.18197266 7.34257812 -15.96484375 6.671875 C-3.72637425 0 -3.72637425 0 0 0 Z " fill="#F2D3D4" transform="translate(261,147)"/>
<path d="M0 0 C0 0.66 0 1.32 0 2 C0.99 2.33 1.98 2.66 3 3 C3 3.99 3 4.98 3 6 C1.68 6.33 0.36 6.66 -1 7 C-1 7.66 -1 8.32 -1 9 C-4.37097383 10.49821059 -6.20442119 11 -10 11 C-10 11.66 -10 12.32 -10 13 C-10.99 12.67 -11.98 12.34 -13 12 C-13 11.34 -13 10.68 -13 10 C-12.030625 9.731875 -11.06125 9.46375 -10.0625 9.1875 C-9.051875 8.795625 -8.04125 8.40375 -7 8 C-5.84188612 5.05270463 -5.84188612 5.05270463 -6 2 C-3 0 -3 0 0 0 Z " fill="#C01033" transform="translate(226,156)"/>
<path d="M0 0 C1.0621875 0.15339844 2.124375 0.30679688 3.21875 0.46484375 C8.96097142 1.18262143 14.72098415 1.3516627 20.5 1.5625 C22.16289062 1.62727539 22.16289062 1.62727539 23.859375 1.69335938 C26.57281506 1.79862214 29.28633417 1.90075846 32 2 C32 2.66 32 3.32 32 4 C28.1875662 4.05872928 24.37525094 4.09383916 20.5625 4.125 C19.49322266 4.14175781 18.42394531 4.15851563 17.32226562 4.17578125 C10.87602841 4.21520778 5.23236102 3.66458433 -1 2 C-0.67 1.34 -0.34 0.68 0 0 Z " fill="#9E1C3B" transform="translate(168,173)"/>
<path d="M0 0 C0.99 0.33 1.98 0.66 3 1 C3 3.64 3 6.28 3 9 C1.948125 8.814375 0.89625 8.62875 -0.1875 8.4375 C-3.57119882 8.04920669 -5.76425888 8.11752515 -9 9 C-8.34 7.68 -7.68 6.36 -7 5 C-6.34 5 -5.68 5 -5 5 C-5 4.34 -5 3.68 -5 3 C-3.35 2.67 -1.7 2.34 0 2 C0 1.34 0 0.68 0 0 Z " fill="#E8DCC5" transform="translate(258,132)"/>
<path d="M0 0 C6.75710231 1.0586127 13.39324562 2.22125844 20 4 C20 4.33 20 4.66 20 5 C15.83861737 5.08159574 12.0527516 4.98248524 8 4 C8 4.66 8 5.32 8 6 C5.29120665 7.35439668 2.99066732 7.06501451 0 7 C0 4.69 0 2.38 0 0 Z " fill="#A91637" transform="translate(0,152)"/>
<path d="M0 0 C1.32 0.99 2.64 1.98 4 3 C4.66 2.01 5.32 1.02 6 0 C8.4375 0.375 8.4375 0.375 11 1 C11.33 1.66 11.66 2.32 12 3 C11.34 3 10.68 3 10 3 C9.67 3.99 9.34 4.98 9 6 C6.71484375 7.16796875 6.71484375 7.16796875 3.9375 8.1875 C3.01839844 8.53167969 2.09929687 8.87585938 1.15234375 9.23046875 C0.44207031 9.48441406 -0.26820313 9.73835937 -1 10 C-0.67 6.7 -0.34 3.4 0 0 Z " fill="#E0E6ED" transform="translate(200,144)"/>
<path d="M0 0 C0 1.32 0 2.64 0 4 C3.72614153 2.88145414 3.72614153 2.88145414 6 0 C7.65 0 9.3 0 11 0 C6.05630703 5.19087762 1.98008864 6.73224886 -5 8 C-5.33 7.01 -5.66 6.02 -6 5 C-6.66 4.67 -7.32 4.34 -8 4 C-2.25 0 -2.25 0 0 0 Z " fill="#1B3F96" transform="translate(216,152)"/>
<path d="M0 0 C1.13115234 0.07831055 1.13115234 0.07831055 2.28515625 0.15820312 C4.1487937 0.28795004 6.01194996 0.42457488 7.875 0.5625 C5.37563756 3.06186244 3.22691992 3.59973753 -0.125 4.6875 C-1.1975 5.04070312 -2.27 5.39390625 -3.375 5.7578125 C-6.125 6.5625 -6.125 6.5625 -8.125 6.5625 C-8.455 5.5725 -8.785 4.5825 -9.125 3.5625 C-8.795 2.9025 -8.465 2.2425 -8.125 1.5625 C-8.785 1.2325 -9.445 0.9025 -10.125 0.5625 C-6.91158631 -1.04420684 -3.49541032 -0.26260855 0 0 Z " fill="#2D3881" transform="translate(72.125,143.4375)"/>
<path d="M0 0 C7.92 0 15.84 0 24 0 C24 0.33 24 0.66 24 1 C21.36 1 18.72 1 16 1 C17.32 1.66 18.64 2.32 20 3 C19.34 3.66 18.68 4.32 18 5 C14.7421875 4.9765625 14.7421875 4.9765625 10.875 4.625 C8.95300781 4.45871094 8.95300781 4.45871094 6.9921875 4.2890625 C5.51105469 4.14597656 5.51105469 4.14597656 4 4 C5.32 3.34 6.64 2.68 8 2 C5.36 1.67 2.72 1.34 0 1 C0 0.67 0 0.34 0 0 Z " fill="#133886" transform="translate(16,145)"/>
<path d="M0 0 C9.57142857 1 9.57142857 1 14 2 C10.91111478 4.05925681 10.29064073 4.2390374 6.8125 4.125 C4.9253125 4.063125 4.9253125 4.063125 3 4 C3.33 5.65 3.66 7.3 4 9 C2.68 9 1.36 9 0 9 C0 6.03 0 3.06 0 0 Z " fill="#163C90" transform="translate(0,142)"/>
<path d="M0 0 C2.475 0.495 2.475 0.495 5 1 C5 1.66 5 2.32 5 3 C6.98 3 8.96 3 11 3 C11.66 4.32 12.32 5.64 13 7 C12.34 7.66 11.68 8.32 11 9 C8.375 8.625 8.375 8.625 6 8 C6 7.34 6 6.68 6 6 C5.34 6 4.68 6 4 6 C3.67 4.68 3.34 3.36 3 2 C2.01 2 1.02 2 0 2 C0 1.34 0 0.68 0 0 Z " fill="#153D98" transform="translate(136,146)"/>
<path d="M0 0 C3.73487777 0.4979837 5.81237635 0.87491756 9 3 C9.66 3 10.32 3 11 3 C11 4.65 11 6.3 11 8 C10.01 8 9.02 8 8 8 C8 7.34 8 6.68 8 6 C7.05125 6.04125 6.1025 6.0825 5.125 6.125 C2 6 2 6 0 4 C0 2.68 0 1.36 0 0 Z " fill="#1B3E8F" transform="translate(124,138)"/>
<path d="M0 0 C0.66 0.33 1.32 0.66 2 1 C2 1.66 2 2.32 2 3 C0.35 3 -1.3 3 -3 3 C-3 3.66 -3 4.32 -3 5 C-7.455 6.485 -7.455 6.485 -12 8 C-12 8.66 -12 9.32 -12 10 C-14.3431213 9.74438677 -16.67843403 9.40729228 -19 9 C-19.33 8.34 -19.66 7.68 -20 7 C-18.89140625 6.66226563 -17.7828125 6.32453125 -16.640625 5.9765625 C-15.17702702 5.52622466 -13.71348845 5.07569367 -12.25 4.625 C-11.15558594 4.29242188 -11.15558594 4.29242188 -10.0390625 3.953125 C-7.09842016 3.04419918 -4.35374049 2.1814943 -1.609375 0.7734375 C-0.81273437 0.39058594 -0.81273437 0.39058594 0 0 Z " fill="#27438C" transform="translate(70,135)"/>
<path d="M0 0 C0.33 0.66 0.66 1.32 1 2 C2.32 2 3.64 2 5 2 C5.33 1.34 5.66 0.68 6 0 C8.31 0.66 10.62 1.32 13 2 C13 2.99 13 3.98 13 5 C10.70774565 4.88628503 8.41617612 4.75869036 6.125 4.625 C4.84882813 4.55539063 3.57265625 4.48578125 2.2578125 4.4140625 C-1 4 -1 4 -3 2 C-2.01 1.34 -1.02 0.68 0 0 Z " fill="#EFD4D7" transform="translate(248,139)"/>
<path d="M0 0 C0.66 0 1.32 0 2 0 C1.45276317 3.37462715 0.9451 5.08235 -1 8 C-1.66 8 -2.32 8 -3 8 C-3 8.66 -3 9.32 -3 10 C-5.375 11.6875 -5.375 11.6875 -8 13 C-8.66 12.67 -9.32 12.34 -10 12 C-8.38201759 9.99394062 -6.75623702 7.99523205 -5.125 6 C-4.66480469 5.42765625 -4.20460937 4.8553125 -3.73046875 4.265625 C-2.53150078 2.80601181 -1.26958455 1.3986243 0 0 Z " fill="#D7DFEB" transform="translate(256,127)"/>
<path d="M0 0 C2.33944736 0.28730055 4.6739143 0.61936779 7 1 C7 1.66 7 2.32 7 3 C6.01 3.33 5.02 3.66 4 4 C5.32 4.66 6.64 5.32 8 6 C7.67 6.99 7.34 7.98 7 9 C1.33846154 6.66153846 1.33846154 6.66153846 -0.375 3.3125 C-0.58125 2.549375 -0.7875 1.78625 -1 1 C-0.67 0.67 -0.34 0.34 0 0 Z " fill="#A31938" transform="translate(150,162)"/>
<path d="M0 0 C0 0.66 0 1.32 0 2 C-1.79036458 2.9765625 -3.58072917 3.953125 -5.37109375 4.9296875 C-7.16618315 5.91410024 -7.16618315 5.91410024 -8 8 C-11.94251293 9.5586679 -15.81154456 10.40164922 -20 11 C-16.51253181 8.22229292 -12.73866136 6.01518529 -8.875 3.8125 C-8.24207031 3.44447266 -7.60914063 3.07644531 -6.95703125 2.69726562 C-2.24307166 0 -2.24307166 0 0 0 Z " fill="#234A89" transform="translate(229,139)"/>
<path d="M0 0 C0 0.99 0 1.98 0 3 C-1.65 3.66 -3.3 4.32 -5 5 C-5 5.66 -5 6.32 -5 7 C-7.31 7.66 -9.62 8.32 -12 9 C-12 9.33 -12 9.66 -12 10 C-14.31 10 -16.62 10 -19 10 C-16.73001796 8.48667864 -14.63178917 7.25736743 -12.20703125 6.0546875 C-11.1387207 5.52294922 -11.1387207 5.52294922 -10.04882812 4.98046875 C-9.31083984 4.61566406 -8.57285156 4.25085938 -7.8125 3.875 C-7.06291016 3.50246094 -6.31332031 3.12992188 -5.54101562 2.74609375 C-3.6949084 1.82891946 -1.84757257 0.91421888 0 0 Z " fill="#F3CAD2" transform="translate(226,165)"/>
<path d="M0 0 C3.96 0.33 7.92 0.66 12 1 C11.67 1.66 11.34 2.32 11 3 C8.24921116 3.91692961 6.64051087 4.10886083 3.8125 4.0625 C1.9253125 4.0315625 1.9253125 4.0315625 0 4 C-0.33 3.34 -0.66 2.68 -1 2 C-0.67 1.34 -0.34 0.68 0 0 Z " fill="#B91131" transform="translate(8,156)"/>
<path d="M0 0 C1.98 0.66 3.96 1.32 6 2 C6 2.66 6 3.32 6 4 C7.2684375 4.37125 7.2684375 4.37125 8.5625 4.75 C12.38427474 6.13973627 15.51868063 7.91120838 19 10 C16 11 16 11 12.8125 9.5625 C11.884375 9.046875 10.95625 8.53125 10 8 C10 7.34 10 6.68 10 6 C8.9171875 5.8453125 8.9171875 5.8453125 7.8125 5.6875 C4.72206579 4.93206053 2.58256159 3.84468685 0 2 C0 1.34 0 0.68 0 0 Z " fill="#5C2A65" transform="translate(136,150)"/>
<path d="M0 0 C0 0.99 0 1.98 0 3 C-2.1875 4.75 -2.1875 4.75 -5 6 C-7.8125 5.6875 -7.8125 5.6875 -10 5 C-9.34 4.67 -8.68 4.34 -8 4 C-8.33 3.01 -8.66 2.02 -9 1 C-6.04335481 -0.4783226 -3.25770263 -0.06032783 0 0 Z " fill="#E7DED9" transform="translate(238,162)"/>
<path d="M0 0 C0 0.66 0 1.32 0 2 C-2.5 3.625 -2.5 3.625 -5 5 C-4.34 5.66 -3.68 6.32 -3 7 C-4.65 7.33 -6.3 7.66 -8 8 C-8.33 7.34 -8.66 6.68 -9 6 C-11.01669827 4.86649466 -11.01669827 4.86649466 -13 4 C-11.2097939 3.32942113 -9.41778511 2.6636531 -7.625 2 C-6.62726563 1.62875 -5.62953125 1.2575 -4.6015625 0.875 C-2 0 -2 0 0 0 Z " fill="#F8DDDE" transform="translate(75,158)"/>
<path d="M0 0 C1.62418745 -0.08090971 3.24951745 -0.13914995 4.875 -0.1875 C5.77992187 -0.22230469 6.68484375 -0.25710937 7.6171875 -0.29296875 C8.79667969 -0.14794922 8.79667969 -0.14794922 10 0 C10.66 0.99 11.32 1.98 12 3 C5.565 3.495 5.565 3.495 -1 4 C-0.67 2.68 -0.34 1.36 0 0 Z " fill="#EBF1F9" transform="translate(93,122)"/>
<path d="M0 0 C4.6889493 0.55619669 8.19924267 1.88182673 12.375 4.0625 C13.43460938 4.61035156 14.49421875 5.15820312 15.5859375 5.72265625 C16.38257813 6.14417969 17.17921875 6.56570312 18 7 C18 7.33 18 7.66 18 8 C15.625 8.125 15.625 8.125 13 8 C12.34 7.34 11.68 6.68 11 6 C10.01 5.855625 9.02 5.71125 8 5.5625 C7.01 5.376875 6.02 5.19125 5 5 C4.34 4.01 3.68 3.02 3 2 C2.01 1.34 1.02 0.68 0 0 Z " fill="#22407B" transform="translate(136,144)"/>
<path d="M0 0 C1.98 0 3.96 0 6 0 C5.67 0.99 5.34 1.98 5 3 C5.66 3 6.32 3 7 3 C7 3.99 7 4.98 7 6 C4.69 5.67 2.38 5.34 0 5 C0 3.35 0 1.7 0 0 Z " fill="#BD152E" transform="translate(94,139)"/>
<path d="M0 0 C0.99 0 1.98 0 3 0 C3 0.66 3 1.32 3 2 C4.32 2.33 5.64 2.66 7 3 C5.71086513 3.67154933 4.41859796 4.33708859 3.125 5 C2.40570313 5.37125 1.68640625 5.7425 0.9453125 6.125 C-1 7 -1 7 -3 7 C-3.33 5.68 -3.66 4.36 -4 3 C-3.01 2.67 -2.02 2.34 -1 2 C-0.67 1.34 -0.34 0.68 0 0 Z " fill="#EBF1F6" transform="translate(73,128)"/>
<path d="M0 0 C1.75570312 0.01353516 1.75570312 0.01353516 3.546875 0.02734375 C4.43890625 0.03894531 5.3309375 0.05054688 6.25 0.0625 C6.25 0.7225 6.25 1.3825 6.25 2.0625 C3.98044814 2.28435844 1.70926245 2.48955515 -0.5625 2.6875 C-2.45935547 2.86152344 -2.45935547 2.86152344 -4.39453125 3.0390625 C-7.75 3.0625 -7.75 3.0625 -10.75 1.0625 C-7.14006828 -0.07230527 -3.7657673 -0.03765767 0 0 Z " fill="#FBE1E2" transform="translate(106.75,146.9375)"/>
<path d="M0 0 C2.01822917 0.06510417 4.03645833 0.13020833 6.0546875 0.1953125 C6.0546875 1.8453125 6.0546875 3.4953125 6.0546875 5.1953125 C4.7346875 5.5253125 3.4146875 5.8553125 2.0546875 6.1953125 C2.0546875 5.2053125 2.0546875 4.2153125 2.0546875 3.1953125 C-0.9153125 2.7003125 -0.9153125 2.7003125 -3.9453125 2.1953125 C-1.9453125 0.1953125 -1.9453125 0.1953125 0 0 Z " fill="#B30F30" transform="translate(155.9453125,164.8046875)"/>
<path d="M0 0 C5.66153846 1.47692308 5.66153846 1.47692308 7.375 4.125 C7.58125 4.74375 7.7875 5.3625 8 6 C5.1875 6.25 5.1875 6.25 2 6 C0.125 4 0.125 4 -1 2 C-0.67 1.34 -0.34 0.68 0 0 Z " fill="#0D419E" transform="translate(114,131)"/>
<path d="M0 0 C4 3 4 3 4.875 5.0625 C4.936875 6.0215625 4.936875 6.0215625 5 7 C3 9 3 9 -1 10 C-0.67 6.7 -0.34 3.4 0 0 Z " fill="#D4DFE1" transform="translate(200,144)"/>
<path d="M0 0 C0.99 0.33 1.98 0.66 3 1 C3 3.31 3 5.62 3 8 C0.03 7.505 0.03 7.505 -3 7 C-3 6.34 -3 5.68 -3 5 C-2.34 5 -1.68 5 -1 5 C-1 4.34 -1 3.68 -1 3 C-1.66 2.67 -2.32 2.34 -3 2 C-2.01 2 -1.02 2 0 2 C0 1.34 0 0.68 0 0 Z " fill="#D4B75E" transform="translate(258,132)"/>
<path d="M0 0 C-1.98 2.31 -3.96 4.62 -6 7 C-7.32 5.35 -8.64 3.7 -10 2 C-8.71211992 1.46987262 -7.41953322 0.9511671 -6.125 0.4375 C-5.40570313 0.14746094 -4.68640625 -0.14257812 -3.9453125 -0.44140625 C-2 -1 -2 -1 0 0 Z " fill="#274789" transform="translate(259,125)"/>
<path d="M0 0 C0.91007813 0.10183594 1.82015625 0.20367187 2.7578125 0.30859375 C3.45648438 0.39238281 4.15515625 0.47617188 4.875 0.5625 C1.55772593 2.77401604 -0.417651 3.89448453 -4.375 3.125 C-4.9525 2.939375 -5.53 2.75375 -6.125 2.5625 C-6.455 3.2225 -6.785 3.8825 -7.125 4.5625 C-7.125 3.2425 -7.125 1.9225 -7.125 0.5625 C-4.50184968 -0.74907516 -2.89466564 -0.33399988 0 0 Z " fill="#1D409B" transform="translate(212.125,150.4375)"/>
<path d="M0 0 C-3.96 1.98 -7.92 3.96 -12 6 C-12.33 5.34 -12.66 4.68 -13 4 C-12.01 4 -11.02 4 -10 4 C-10 3.01 -10 2.02 -10 1 C-3.375 -1.125 -3.375 -1.125 0 0 Z " fill="#A72A47" transform="translate(226,166)"/>
<path d="M0 0 C0.66 0.33 1.32 0.66 2 1 C1.67 1.66 1.34 2.32 1 3 C1.66 3 2.32 3 3 3 C3 3.99 3 4.98 3 6 C1.68 6 0.36 6 -1 6 C-1 5.34 -1 4.68 -1 4 C-2.98 4.66 -4.96 5.32 -7 6 C-4.74259377 3.66475218 -2.7194239 1.81294927 0 0 Z " fill="#A21B3C" transform="translate(227,152)"/>
<path d="M0 0 C1.98 0.66 3.96 1.32 6 2 C6 2.66 6 3.32 6 4 C5.34 4 4.68 4 4 4 C4 5.32 4 6.64 4 8 C3.01 7.67 2.02 7.34 1 7 C1.66 5.68 2.32 4.36 3 3 C1.02 3 -0.96 3 -3 3 C-2.01 2.01 -1.02 1.02 0 0 Z " fill="#1D4396" transform="translate(110,127)"/>
<path d="M0 0 C2.1385485 2.1385485 2.42655063 3.13275314 3 6 C1.35 6 -0.3 6 -2 6 C-2.66 4.68 -3.32 3.36 -4 2 C-2.68 1.34 -1.36 0.68 0 0 Z " fill="#0C479D" transform="translate(229,140)"/>
<path d="M0 0 C1.65 0.33 3.3 0.66 5 1 C2.68055212 4.47917182 0.73630036 5.29429766 -3 7 C-2.38722388 4.03824877 -1.74627478 2.61941217 0 0 Z " fill="#E0E1DF" transform="translate(235,128)"/>
<path d="M0 0 C8.57142857 0.85714286 8.57142857 0.85714286 12 3 C8.72814447 4.07310858 6.57052408 3.89263102 3.25 3.0625 C2.45078125 2.86785156 1.6515625 2.67320312 0.828125 2.47265625 C0.22484375 2.31667969 -0.3784375 2.16070312 -1 2 C-0.67 1.34 -0.34 0.68 0 0 Z " fill="#9C2940" transform="translate(168,173)"/>
<path d="M0 0 C2.3431213 0.25561323 4.67843403 0.59270772 7 1 C7.33 1.66 7.66 2.32 8 3 C1.565 3.495 1.565 3.495 -5 4 C-2 2 -2 2 0 2 C0 1.34 0 0.68 0 0 Z " fill="#B02042" transform="translate(28,162)"/>
<path d="M0 0 C0 0.66 0 1.32 0 2 C0.66 2.33 1.32 2.66 2 3 C-1.93670488 4.31223496 -4.12488144 3.24296256 -8 2 C-8 1.34 -8 0.68 -8 0 C-2.25 -1.125 -2.25 -1.125 0 0 Z " fill="#A42745" transform="translate(8,159)"/>
<path d="M0 0 C2.475 0.495 2.475 0.495 5 1 C5 1.66 5 2.32 5 3 C6.32 3.33 7.64 3.66 9 4 C8.67 4.66 8.34 5.32 8 6 C6.68 6 5.36 6 4 6 C3.67 4.68 3.34 3.36 3 2 C2.01 2 1.02 2 0 2 C0 1.34 0 0.68 0 0 Z " fill="#1143A4" transform="translate(136,146)"/>
<path d="M0 0 C2.3431213 0.25561323 4.67843403 0.59270772 7 1 C7.33 1.66 7.66 2.32 8 3 C4.7 3.66 1.4 4.32 -2 5 C-1.34 3.35 -0.68 1.7 0 0 Z " fill="#E4E8F4" transform="translate(53,137)"/>
<path d="M0 0 C0 0.66 0 1.32 0 2 C-1.32 2.33 -2.64 2.66 -4 3 C-4 3.66 -4 4.32 -4 5 C-4.66 5 -5.32 5 -6 5 C-6.33 5.99 -6.66 6.98 -7 8 C-8.32 7.67 -9.64 7.34 -11 7 C-10.01 6.67 -9.02 6.34 -8 6 C-8 5.34 -8 4.68 -8 4 C-2.58823529 0 -2.58823529 0 0 0 Z " fill="#7B225F" transform="translate(240,144)"/>
<path d="M0 0 C1.65 0 3.3 0 5 0 C5 2.33333333 5 4.66666667 5 7 C2.5 5.75 2.5 5.75 0 4 C0 2.68 0 1.36 0 0 Z " fill="#E7EDF9" transform="translate(147,144)"/>
<path d="M0 0 C3.59075147 1.33370769 6.84621398 2.80987082 10 5 C10.33 5.99 10.66 6.98 11 8 C5.25 6.375 5.25 6.375 3 3 C2.01 2.67 1.02 2.34 0 2 C0 1.34 0 0.68 0 0 Z " fill="#822256" transform="translate(120,140)"/>
<path d="M0 0 C1.66666667 1.66666667 3.33333333 3.33333333 5 5 C5 5.99 5 6.98 5 8 C2.69 7.34 0.38 6.68 -2 6 C-2 5.34 -2 4.68 -2 4 C-1.01 4 -0.02 4 1 4 C0.67 2.68 0.34 1.36 0 0 Z " fill="#A61E3A" transform="translate(161,166)"/>
<path d="M0 0 C1.65 0 3.3 0 5 0 C5 0.99 5 1.98 5 3 C2.69 3.33 0.38 3.66 -2 4 C-1.34 2.68 -0.68 1.36 0 0 Z " fill="#922146" transform="translate(242,142)"/>
<path d="M0 0 C4.95 0.99 4.95 0.99 10 2 C9.67 2.99 9.34 3.98 9 5 C8.01 5 7.02 5 6 5 C6 4.34 6 3.68 6 3 C3.03 2.505 3.03 2.505 0 2 C0 1.34 0 0.68 0 0 Z " fill="#F3DAD7" transform="translate(166,174)"/>
<path d="M0 0 C2.97 0.495 2.97 0.495 6 1 C6 1.99 6 2.98 6 4 C3.03 3.505 3.03 3.505 0 3 C0 2.01 0 1.02 0 0 Z " fill="#0E409F" transform="translate(124,138)"/>
<path d="M0 0 C0.33 0 0.66 0 1 0 C1 1.98 1 3.96 1 6 C-0.65 6.33 -2.3 6.66 -4 7 C-2.92598892 4.08482708 -2.22189824 2.22189824 0 0 Z " fill="#E7E4CE" transform="translate(260,127)"/>
<path d="M0 0 C1.98 0.99 3.96 1.98 6 3 C3 5 3 5 0.3125 4.625 C-0.450625 4.41875 -1.21375 4.2125 -2 4 C-1.34 2.68 -0.68 1.36 0 0 Z " fill="#F3E2E2" transform="translate(141,162)"/>
<path d="M0 0 C0.33 0.66 0.66 1.32 1 2 C4.465 1.505 4.465 1.505 8 1 C6.1875 3 6.1875 3 4 5 C3.01 5 2.02 5 1 5 C0.67 3.35 0.34 1.7 0 0 Z " fill="#A61E37" transform="translate(224,160)"/>
<path d="M0 0 C1.98 0 3.96 0 6 0 C6 0.99 6 1.98 6 3 C3.69 3 1.38 3 -1 3 C-0.67 2.01 -0.34 1.02 0 0 Z " fill="#B0112C" transform="translate(139,157)"/>
<path d="M0 0 C1.65 0 3.3 0 5 0 C5.33 0.99 5.66 1.98 6 3 C2.71023192 4.09658936 1.28696233 3.79953138 -2 3 C-1.34 2.67 -0.68 2.34 0 2 C0 1.34 0 0.68 0 0 Z " fill="#B01226" transform="translate(128,149)"/>
<path d="M0 0 C1.32 0.66 2.64 1.32 4 2 C1.37801226 4.15377564 -0.64404172 5.40072174 -4 6 C-4.33 5.34 -4.66 4.68 -5 4 C-3.35 3.67 -1.7 3.34 0 3 C0 2.01 0 1.02 0 0 Z " fill="#AC2844" transform="translate(82,150)"/>
<path d="M0 0 C1.65 0 3.3 0 5 0 C5 0.66 5 1.32 5 2 C7.31 2 9.62 2 12 2 C12 2.33 12 2.66 12 3 C10.56260487 3.02712066 9.12506137 3.04645067 7.6875 3.0625 C6.48673828 3.07990234 6.48673828 3.07990234 5.26171875 3.09765625 C3 3 3 3 0 2 C0 1.34 0 0.68 0 0 Z " fill="#BB3E52" transform="translate(101,144)"/>
<path d="M0 0 C0.66 0.33 1.32 0.66 2 1 C2 1.99 2 2.98 2 4 C-0.375 5.75 -0.375 5.75 -3 7 C-3.66 6.67 -4.32 6.34 -5 6 C-3.35 4.02 -1.7 2.04 0 0 Z " fill="#C6DAE4" transform="translate(251,133)"/>
<path d="M0 0 C-0.33 0.99 -0.66 1.98 -1 3 C-3.31 3 -5.62 3 -8 3 C-7 1 -7 1 -4.5625 -0.1875 C-2 -1 -2 -1 0 0 Z " fill="#A31D45" transform="translate(220,159)"/>
<path d="M0 0 C1.11375 0.1546875 1.11375 0.1546875 2.25 0.3125 C0.08312509 2.58771866 -2.20620509 4.47044162 -4.75 6.3125 C-5.41 5.9825 -6.07 5.6525 -6.75 5.3125 C-3.42692308 0.38942308 -3.42692308 0.38942308 0 0 Z " fill="#493278" transform="translate(224.75,151.6875)"/>
<path d="M0 0 C2.97 0.495 2.97 0.495 6 1 C2.93753253 2.78409802 0.77920727 3.22880021 -2.75 3.125 C-3.54921875 3.10695312 -4.3484375 3.08890625 -5.171875 3.0703125 C-5.77515625 3.04710937 -6.3784375 3.02390625 -7 3 C-7 2.67 -7 2.34 -7 2 C-4.69 2 -2.38 2 0 2 C0 1.34 0 0.68 0 0 Z " fill="#EAF3FA" transform="translate(43,141)"/>
<path d="M0 0 C2.64 0.33 5.28 0.66 8 1 C7.34 2.32 6.68 3.64 6 5 C3.98079663 3.69593116 1.98075027 2.36176581 0 1 C0 0.67 0 0.34 0 0 Z " fill="#E4EBF8" transform="translate(131,138)"/>
<path d="M0 0 C0.66 0 1.32 0 2 0 C2 1.32 2 2.64 2 4 C2.99 4.33 3.98 4.66 5 5 C2.03 4.67 -0.94 4.34 -4 4 C-2.68 3.67 -1.36 3.34 0 3 C0 2.01 0 1.02 0 0 Z " fill="#1F3B8B" transform="translate(168,160)"/>
<path d="M0 0 C0 0.66 0 1.32 0 2 C-2.90600261 3.25664978 -4.79604584 4 -8 4 C-8 3.34 -8 2.68 -8 2 C-4.91190305 0.23537317 -3.76687864 0 0 0 Z " fill="#A32844" transform="translate(96,147)"/>
<path d="M0 0 C5.75 0.875 5.75 0.875 8 2 C8 2.99 8 3.98 8 5 C7.01 5 6.02 5 5 5 C4.34 4.01 3.68 3.02 3 2 C2.01 1.34 1.02 0.68 0 0 Z " fill="#25408B" transform="translate(136,144)"/>
<path d="M0 0 C2.64 0 5.28 0 8 0 C8 0.66 8 1.32 8 2 C4.94736336 2.98120464 3.05263664 2.98120464 0 2 C0 1.34 0 0.68 0 0 Z " fill="#962046" transform="translate(80,142)"/>
</svg>
