<?xml version="1.0" encoding="UTF-8"?>
<svg version="1.1" xmlns="http://www.w3.org/2000/svg" width="133" height="200">
<path d="M0 0 C43.89 0 87.78 0 133 0 C133 66 133 132 133 200 C89.11 200 45.22 200 0 200 C0 134 0 68 0 0 Z " fill="#ACA397" transform="translate(0,0)"/>
<path d="M0 0 C0.495 1.485 0.495 1.485 1 3 C1.66 3 2.32 3 3 3 C3.495 4.010625 3.99 5.02125 4.5 6.0625 C6.24178626 9.15077351 8.11956528 11.09548356 10.875 13.3125 C18.05508922 19.34055998 21.75575445 26.6156765 22.87109375 35.90234375 C23.31421825 46.55075983 19.83841348 56.25951004 16.47680664 66.22216797 C13.68378394 74.55296528 12.81906319 82.18877159 12.8125 90.9375 C12.80025391 91.79279297 12.78800781 92.64808594 12.77539062 93.52929688 C12.77345703 94.37427734 12.77152344 95.21925781 12.76953125 96.08984375 C12.76542236 96.84128662 12.76131348 97.59272949 12.75708008 98.36694336 C13.08985651 101.97397233 14.12145179 105.48580718 15 109 C15.33 116.26 15.66 123.52 16 131 C-7.1 131 -30.2 131 -54 131 C-52.75453595 127.26360784 -51.36595047 126.81243487 -48 125 C-47.34 125.66 -46.68 126.32 -46 127 C-43.89179203 126.6814823 -43.89179203 126.6814823 -42 126 C-42.95712891 125.00419922 -42.95712891 125.00419922 -43.93359375 123.98828125 C-44.75988281 123.10527344 -45.58617187 122.22226563 -46.4375 121.3125 C-47.26121094 120.44238281 -48.08492187 119.57226562 -48.93359375 118.67578125 C-51.03047904 115.96053281 -51.66644494 114.36587377 -52 111 C-51.43410156 110.60167969 -50.86820313 110.20335937 -50.28515625 109.79296875 C-49.55167969 109.26316406 -48.81820312 108.73335938 -48.0625 108.1875 C-47.33160156 107.66542969 -46.60070313 107.14335937 -45.84765625 106.60546875 C-43.73116774 105.04132873 -43.73116774 105.04132873 -43 102 C-43.09086718 99.46451254 -43.24188896 96.96482874 -43.4375 94.4375 C-43.58407226 92.0707964 -43.7216728 89.70366039 -43.859375 87.33642578 C-43.94759158 85.87074404 -44.0428605 84.40545155 -44.1484375 82.94091797 C-44.88060328 72.04726027 -43.30673121 61.72806874 -41.25 51.0625 C-41.1236618 50.39837097 -40.99732361 49.73424194 -40.86715698 49.04998779 C-36.21572777 24.95136029 -36.21572777 24.95136029 -28 17 C-24.27469074 15.21185155 -22.15609755 15 -18 15 C-17.91234375 14.25105469 -17.8246875 13.50210938 -17.734375 12.73046875 C-16.48166415 8.07278318 -12.77382985 5.76604574 -9 3 C-6.06285217 1.53142609 -3.19842758 0.71076168 0 0 Z " fill="#392D29" transform="translate(94,69)"/>
<path d="M0 0 C1.33333333 0 2.66666667 0 4 0 C4.0501123 0.56396484 4.10022461 1.12792969 4.15185547 1.70898438 C4.38640878 4.30662237 4.63064446 6.90326647 4.875 9.5 C4.95363281 10.386875 5.03226563 11.27375 5.11328125 12.1875 C5.4974709 16.20671475 5.93255533 20.0465813 7.03125 23.9375 C8.41891399 29.0528104 8.45839285 34.22858132 8.625 39.5 C8.74875 42.965 8.8725 46.43 9 50 C-5.19 50 -19.38 50 -34 50 C-34.33 47.69 -34.66 45.38 -35 43 C-36.32 43.66 -37.64 44.32 -39 45 C-38.67 43.68 -38.34 42.36 -38 41 C-39.32 41 -40.64 41 -42 41 C-42.33 40.34 -42.66 39.68 -43 39 C-45.64 39.33 -48.28 39.66 -51 40 C-51.66 38.68 -52.32 37.36 -53 36 C-51.27377813 34.50167821 -49.54196931 33.01150604 -47.796875 31.53515625 C-46.50347549 30.43014319 -45.24105754 29.28849144 -44 28.125 C-41.02174687 26.44973262 -38.34203175 26.80719048 -35 27 C-34.67 25.35 -34.34 23.7 -34 22 C-33.43152344 21.82984375 -32.86304687 21.6596875 -32.27734375 21.484375 C-26.45867856 19.65814953 -20.72056771 17.72056771 -16.3125 13.3125 C-14.66034796 11.66034796 -13.26787451 11.39101285 -11 11 C-11.66 9.02 -12.32 7.04 -13 5 C-10.525 5.495 -10.525 5.495 -8 6 C-8.495 4.02 -8.495 4.02 -9 2 C-8.236875 2.185625 -7.47375 2.37125 -6.6875 2.5625 C-3.91032625 3.22819173 -3.91032625 3.22819173 -1 2 C-0.67 1.34 -0.34 0.68 0 0 Z " fill="#1F1615" transform="translate(101,150)"/>
<path d="M0 0 C0.495 1.485 0.495 1.485 1 3 C1.66 3 2.32 3 3 3 C3.495 4.010625 3.99 5.02125 4.5 6.0625 C6.73298064 10.02423985 9.69099863 12.48634681 13.15625 15.36328125 C15.38142243 17.33859322 16.82650019 19.26183378 18 22 C17.67 22.66 17.34 23.32 17 24 C16.01 23.9175 15.02 23.835 14 23.75 C9.49337886 23.74080281 5.62662283 25.35521896 2 28 C1.505 29.485 1.505 29.485 1 31 C1.94875 30.34 2.8975 29.68 3.875 29 C7 27 7 27 9 27 C9 27.66 9 28.32 9 29 C7.171875 30.47265625 7.171875 30.47265625 4.75 32.0625 C3.56664063 32.85333984 3.56664063 32.85333984 2.359375 33.66015625 C0.18611716 34.89430764 -1.56017928 35.54673055 -4 36 C-3.67 34.68 -3.34 33.36 -3 32 C-3.66 32 -4.32 32 -5 32 C-5.99 34.97 -6.98 37.94 -8 41 C-8.99 40.34 -9.98 39.68 -11 39 C-13.16591371 41.76148156 -13.16591371 41.76148156 -13.3125 44.5625 C-13.539375 45.366875 -13.76625 46.17125 -14 47 C-16.88909849 48.59660706 -18.69058796 49 -22 49 C-22.33 49.99 -22.66 50.98 -23 52 C-23 50.35 -23 48.7 -23 47 C-23.33 47.66 -23.66 48.32 -24 49 C-24.66 49 -25.32 49 -26 49 C-26 48.34 -26 47.68 -26 47 C-26.66 47 -27.32 47 -28 47 C-28.57110566 40.60361665 -24.91108286 36.73241026 -21 32 C-19.234375 30.41796875 -19.234375 30.41796875 -17.625 29.1875 C-14.58290453 26.65242044 -14.69970105 25.69841982 -14 22 C-11.5 20.875 -11.5 20.875 -9 20 C-8.67 19.01 -8.34 18.02 -8 17 C-8.598125 17.474375 -9.19625 17.94875 -9.8125 18.4375 C-12 20 -12 20 -15 21 C-15.680625 22.1446875 -15.680625 22.1446875 -16.375 23.3125 C-18.72019479 27.19109139 -22.0203178 29.27690123 -25.625 31.9375 C-29.48768226 35.2919346 -31.24348447 39.27091974 -33 44 C-34.6168484 40.76630321 -33.00851816 37.69371743 -32.0625 34.375 C-31.86720703 33.66859375 -31.67191406 32.9621875 -31.47070312 32.234375 C-30.98685508 30.48780156 -30.49424877 28.74365876 -30 27 C-29.34 27 -28.68 27 -28 27 C-28 25.68 -28 24.36 -28 23 C-28.66 23 -29.32 23 -30 23 C-30.12246094 23.82757813 -30.24492188 24.65515625 -30.37109375 25.5078125 C-31.06476056 29.3596021 -32.02852131 33.10444874 -33.0625 36.875 C-33.24876953 37.56335938 -33.43503906 38.25171875 -33.62695312 38.9609375 C-34.08205811 40.64132514 -34.54066678 42.32076322 -35 44 C-36.98 44.495 -36.98 44.495 -39 45 C-38.32555019 34.71464034 -35.63575574 24.39005073 -28 17 C-24.27469074 15.21185155 -22.15609755 15 -18 15 C-17.91234375 14.25105469 -17.8246875 13.50210938 -17.734375 12.73046875 C-16.48166415 8.07278318 -12.77382985 5.76604574 -9 3 C-6.06285217 1.53142609 -3.19842758 0.71076168 0 0 Z " fill="#564843" transform="translate(94,69)"/>
<path d="M0 0 C1.65 0 3.3 0 5 0 C4.67 0.66 4.34 1.32 4 2 C6.31 2 8.62 2 11 2 C11 2.66 11 3.32 11 4 C8.36 4.66 5.72 5.32 3 6 C4.98 6.33 6.96 6.66 9 7 C9 9 9 9 7.5 10.625 C7.005 11.07875 6.51 11.5325 6 12 C7.31471568 11.71848913 8.62675767 11.42446661 9.9375 11.125 C10.66839844 10.96257812 11.39929688 10.80015625 12.15234375 10.6328125 C14.20700294 10.17038477 14.20700294 10.17038477 15 8 C15.66 8 16.32 8 17 8 C17.103125 7.360625 17.20625 6.72125 17.3125 6.0625 C17.539375 5.381875 17.76625 4.70125 18 4 C18.99 3.67 19.98 3.34 21 3 C20.58052718 7.8938496 18.51423954 9.73093997 15 13 C14.13375 14.2684375 14.13375 14.2684375 13.25 15.5625 C10.09091061 18.98484683 6.36337502 20.4921928 2 22 C1.34 22 0.68 22 0 22 C0 22.99 0 23.98 0 25 C-0.66 25 -1.32 25 -2 25 C-2 25.66 -2 26.32 -2 27 C0.64 27 3.28 27 6 27 C6 28.32 6 29.64 6 31 C3.69 31.33 1.38 31.66 -1 32 C-0.505 34.475 -0.505 34.475 0 37 C-3.465 37.495 -3.465 37.495 -7 38 C-5.02 38.99 -3.04 39.98 -1 41 C-1 41.66 -1 42.32 -1 43 C-1.66 43 -2.32 43 -3 43 C-3 43.66 -3 44.32 -3 45 C-5.64 45.33 -8.28 45.66 -11 46 C-11 46.99 -11 47.98 -11 49 C-15.95 49.495 -15.95 49.495 -21 50 C-21 50.99 -21 51.98 -21 53 C-21.33 53.66 -21.66 54.32 -22 55 C-20.02 55 -18.04 55 -16 55 C-16 55.66 -16 56.32 -16 57 C-18.475 57.495 -18.475 57.495 -21 58 C-21.33 59.32 -21.66 60.64 -22 62 C-23.60875 62.1546875 -23.60875 62.1546875 -25.25 62.3125 C-28.92375834 62.98602236 -30.25157596 63.65874989 -33 66 C-33.66 66 -34.32 66 -35 66 C-35.33 66.99 -35.66 67.98 -36 69 C-37.5625 70.6875 -37.5625 70.6875 -39 72 C-38.67 72.99 -38.34 73.98 -38 75 C-33.05 74.01 -33.05 74.01 -28 73 C-28.33 73.99 -28.66 74.98 -29 76 C-27.68 76 -26.36 76 -25 76 C-25 76.99 -25 77.98 -25 79 C-23.515 78.505 -23.515 78.505 -22 78 C-21.67 80.31 -21.34 82.62 -21 85 C-29.91 85 -38.82 85 -48 85 C-46.75453595 81.26360784 -45.36595047 80.81243487 -42 79 C-41.34 79.66 -40.68 80.32 -40 81 C-37.89179203 80.6814823 -37.89179203 80.6814823 -36 80 C-36.95712891 79.00419922 -36.95712891 79.00419922 -37.93359375 77.98828125 C-38.75988281 77.10527344 -39.58617187 76.22226563 -40.4375 75.3125 C-41.26121094 74.44238281 -42.08492187 73.57226562 -42.93359375 72.67578125 C-45.03047904 69.96053281 -45.66644494 68.36587377 -46 65 C-45.44570313 64.60167969 -44.89140625 64.20335937 -44.3203125 63.79296875 C-43.59585938 63.26316406 -42.87140625 62.73335937 -42.125 62.1875 C-41.40570313 61.66542969 -40.68640625 61.14335937 -39.9453125 60.60546875 C-37.76971345 58.96727223 -37.76971345 58.96727223 -36 56 C-34.9790625 55.7525 -34.9790625 55.7525 -33.9375 55.5 C-32.9784375 55.2525 -32.9784375 55.2525 -32 55 C-31.67 54.01 -31.34 53.02 -31 52 C-28.9375 51.3125 -28.9375 51.3125 -27 51 C-27 50.34 -27 49.68 -27 49 C-25.49609375 47.5546875 -25.49609375 47.5546875 -23.4375 45.875 C-20.41700504 43.32945919 -17.82919186 40.7308124 -15.3125 37.6875 C-12.80529796 34.71451042 -10.89995698 32.94544412 -7 32 C-7.33 31.67 -7.66 31.34 -8 31 C-8.31669461 21.22770932 -4.7750197 8.48398849 0 0 Z " fill="#5A4D4A" transform="translate(88,115)"/>
<path d="M0 0 C2.85425544 2.10599397 3.72766139 3.73881508 4.4375 7.1875 C4.705625 8.445625 4.97375 9.70375 5.25 11 C7.66499457 12.46664648 7.66499457 12.46664648 10.25 13 C12.25 15 12.25 15 12.6875 18.3125 C12.14183791 22.91165189 10.60825915 23.96937589 7.25 27 C6.61707617 29.11280345 6.61707617 29.11280345 6.25 31 C5.26 31.66 4.27 32.32 3.25 33 C2.59 31.35 1.93 29.7 1.25 28 C0.92 29.32 0.59 30.64 0.25 32 C-0.245 29.03 -0.245 29.03 -0.75 26 C-1.41 26 -2.07 26 -2.75 26 C-4.2106285 23.35261084 -4.75 22.10551666 -4.75 19 C-7.10515568 19.28492231 -9.45889434 19.57774914 -11.8125 19.875 C-12.79766602 19.99294922 -12.79766602 19.99294922 -13.80273438 20.11328125 C-18.28218145 20.68700354 -22.49647861 21.45030941 -26.75 23 C-27.08 23.99 -27.41 24.98 -27.75 26 C-26.1 26 -24.45 26 -22.75 26 C-22.42 26.99 -22.09 27.98 -21.75 29 C-24.75 29 -24.75 29 -27.75 27 C-28.08 27.66 -28.41 28.32 -28.75 29 C-28.75 28.01 -28.75 27.02 -28.75 26 C-29.513125 25.773125 -30.27625 25.54625 -31.0625 25.3125 C-34.29736301 23.73268318 -35.16641358 22.16717283 -36.75 19 C-33.125 16 -33.125 16 -29.75 16 C-29.79640625 15.33613281 -29.8428125 14.67226563 -29.890625 13.98828125 C-30.18381595 6.81557399 -30.18381595 6.81557399 -28.1875 3.0625 C-20.65518381 -3.31099831 -8.8599539 -4.79441746 0 0 Z " fill="#3C332D" transform="translate(86.75,26)"/>
<path d="M0 0 C1.4606285 2.64738916 2 3.89448334 2 7 C2.66 7 3.32 7 4 7 C4.33 7.99 4.66 8.98 5 10 C5.99 10 6.98 10 8 10 C8.33 10.99 8.66 11.98 9 13 C9.66 11.68 10.32 10.36 11 9 C12.125 12.75 12.125 12.75 11 15 C11 16.32 11 17.64 11 19 C9.02 19 7.04 19 5 19 C4.896875 19.78375 4.79375 20.5675 4.6875 21.375 C4 24 4 24 1 26 C-0.03432904 27.98246398 -1.03238392 29.98413316 -2 32 C-2.99387334 33.33790641 -3.9926892 34.67218122 -5 36 C-5.33 36.99 -5.66 37.98 -6 39 C-8.3125 39.625 -8.3125 39.625 -11 40 C-11.99 39.34 -12.98 38.68 -14 38 C-13.01 37.01 -12.02 36.02 -11 35 C-11.99 33.68 -12.98 32.36 -14 31 C-12.68 31 -11.36 31 -10 31 C-9.67 30.01 -9.34 29.02 -9 28 C-10.98 27.67 -12.96 27.34 -15 27 C-15 26.34 -15 25.68 -15 25 C-15.66 24.34 -16.32 23.68 -17 23 C-16.01 22.67 -15.02 22.34 -14 22 C-14.350625 21.34 -14.70125 20.68 -15.0625 20 C-16.32853409 15.9486909 -15.70614482 13.16625445 -15 9 C-15.99 9 -16.98 9 -18 9 C-18 8.34 -18 7.68 -18 7 C-19.65 7 -21.3 7 -23 7 C-22.67 5.68 -22.34 4.36 -22 3 C-14.72896356 0.67945645 -7.64070777 -0.19591558 0 0 Z " fill="#C5906C" transform="translate(82,45)"/>
<path d="M0 0 C0.66 0.33 1.32 0.66 2 1 C-0.3125 3.5 -0.3125 3.5 -3 6 C-3.99 6 -4.98 6 -6 6 C-5.896875 6.721875 -5.79375 7.44375 -5.6875 8.1875 C-6.1285967 12.1573703 -8.00483682 13.50403068 -11 16 C-11.66 16 -12.32 16 -13 16 C-13.226875 16.515625 -13.45375 17.03125 -13.6875 17.5625 C-14.81857512 19.66306808 -16.00219945 21.36076403 -17.4375 23.25 C-20.15441539 26.95561537 -21.55109377 30.65328131 -23 35 C-23.66 35 -24.32 35 -25 35 C-25 35.66 -25 36.32 -25 37 C-24.34 37 -23.68 37 -23 37 C-23.33 38.32 -23.66 39.64 -24 41 C-24.99 41 -25.98 41 -27 41 C-26.938125 42.0725 -26.87625 43.145 -26.8125 44.25 C-27.00543309 48.10866187 -27.39665076 49.28817788 -30 52 C-29.67 49.69 -29.34 47.38 -29 45 C-29.66 45 -30.32 45 -31 45 C-31.88557899 52.60649095 -32.03749171 60.06982079 -31.83984375 67.71484375 C-31.99115637 70.81859776 -32.35198523 72.4213416 -34 75 C-34.33 75 -34.66 75 -35 75 C-37.27672843 63.17211814 -36.38118944 51.32291491 -34.1875 39.5625 C-34.0222583 38.65685303 -33.8570166 37.75120605 -33.68676758 36.81811523 C-32.27304483 29.8306658 -32.27304483 29.8306658 -29 27 C-28.34 27.33 -27.68 27.66 -27 28 C-26.87625 27.01 -26.7525 26.02 -26.625 25 C-25.73682145 18.80776925 -24.06511621 12.90033204 -22 7 C-21.34 7 -20.68 7 -20 7 C-20 8.32 -20 9.64 -20 11 C-20.66 11 -21.32 11 -22 11 C-22.33439553 12.81230433 -22.66748824 14.6248491 -23 16.4375 C-23.185625 17.44683594 -23.37125 18.45617187 -23.5625 19.49609375 C-24.02868656 21.74053928 -24.02868656 21.74053928 -24 23 C-23.3503125 21.7934375 -23.3503125 21.7934375 -22.6875 20.5625 C-19.81931274 16.17156605 -15.58178861 13.29707708 -11.4609375 10.1484375 C-9.09875446 8.08621421 -8.28821436 6.7587787 -7 4 C-3.9375 2.3125 -3.9375 2.3125 -1 1 C-0.67 0.67 -0.34 0.34 0 0 Z " fill="#302722" transform="translate(86,85)"/>
<path d="M0 0 C0.66 0.33 1.32 0.66 2 1 C1.67 1.66 1.34 2.32 1 3 C3.475 3.495 3.475 3.495 6 4 C5.34 4.33 4.68 4.66 4 5 C4 5.66 4 6.32 4 7 C7.465 6.505 7.465 6.505 11 6 C11 7.32 11 8.64 11 10 C11.99 8.68 12.98 7.36 14 6 C13.34 11.28 12.68 16.56 12 22 C11.67 22 11.34 22 11 22 C10.67 20.35 10.34 18.7 10 17 C9.37351563 17.2165625 8.74703125 17.433125 8.1015625 17.65625 C7.28429687 17.9346875 6.46703125 18.213125 5.625 18.5 C4.81289062 18.7784375 4.00078125 19.056875 3.1640625 19.34375 C1 20 1 20 -1 20 C-0.67 20.99 -0.34 21.98 0 23 C-2.16874252 22.49396008 -3.99967627 22.00016187 -6 21 C-5.484375 21.598125 -4.96875 22.19625 -4.4375 22.8125 C-3.963125 23.534375 -3.48875 24.25625 -3 25 C-3.33 25.99 -3.66 26.98 -4 28 C-5.66666667 28.66666667 -7.33333333 29.33333333 -9 30 C-10.423125 31.2375 -10.423125 31.2375 -11.875 32.5 C-15.01418865 35.22063016 -17.8705506 36.26259832 -22 37 C-25.4375 36.625 -25.4375 36.625 -28 36 C-27.690625 35.071875 -27.690625 35.071875 -27.375 34.125 C-27.25125 33.42375 -27.1275 32.7225 -27 32 C-27.66 31.34 -28.32 30.68 -29 30 C-25.04 30 -21.08 30 -17 30 C-17 29.01 -17 28.02 -17 27 C-13.04 26.505 -13.04 26.505 -9 26 C-9 25.34 -9 24.68 -9 24 C-8.34 24 -7.68 24 -7 24 C-7 23.34 -7 22.68 -7 22 C-7.598125 21.896875 -8.19625 21.79375 -8.8125 21.6875 C-11.28243264 20.91123545 -12.32251235 19.92911079 -14 18 C-11.36 18 -8.72 18 -6 18 C-6.495 15.525 -6.495 15.525 -7 13 C-4.69 12.34 -2.38 11.68 0 11 C0 10.34 0 9.68 0 9 C-2.64 8.67 -5.28 8.34 -8 8 C-8 7.34 -8 6.68 -8 6 C-7.34 6 -6.68 6 -6 6 C-6 5.01 -6 4.02 -6 3 C-4.03533587 1.93224776 -2.03144641 0.93446535 0 0 Z " fill="#3C302D" transform="translate(94,134)"/>
<path d="M0 0 C2.8942612 2.05644875 3.81588125 3.3248979 4.75 6.75 C4.87375 7.86375 4.87375 7.86375 5 9 C4.113125 9.680625 3.22625 10.36125 2.3125 11.0625 C-0.05438934 13.01920243 -1.78928943 14.95343735 -3.5 17.5 C-6.03319645 21.16351512 -8.19685766 23.58646736 -12 26 C-15.05094326 26.39012061 -17.94467991 26.30553201 -21 26 C-20.34 25.34 -19.68 24.68 -19 24 C-20.32 23.67 -21.64 23.34 -23 23 C-23.33 23.66 -23.66 24.32 -24 25 C-23.85217061 20.7868624 -23.45110425 16.97498913 -22 13 C-18.94461874 10.4664004 -15.72010516 9.2863915 -12 8 C-10.65686601 7.35330586 -9.31955738 6.69353481 -8 6 C-8 5.34 -8 4.68 -8 4 C-8.55429688 4.37253906 -9.10859375 4.74507813 -9.6796875 5.12890625 C-10.40414062 5.60199219 -11.12859375 6.07507813 -11.875 6.5625 C-12.59429687 7.03816406 -13.31359375 7.51382813 -14.0546875 8.00390625 C-15.01761719 8.49697266 -15.01761719 8.49697266 -16 9 C-16.66 8.67 -17.32 8.34 -18 8 C-13.61560848 1.51110055 -7.79703507 -1.02979708 0 0 Z " fill="#3E2F2C" transform="translate(111,92)"/>
<path d="M0 0 C-0.66 1.98 -1.32 3.96 -2 6 C-0.68 6.33 0.64 6.66 2 7 C1.38125 8.03125 0.7625 9.0625 0.125 10.125 C-1.70698045 13.31472483 -2.9635747 16.45888021 -4 20 C-4.99 19.34 -5.98 18.68 -7 18 C-9.16591371 20.76148156 -9.16591371 20.76148156 -9.3125 23.5625 C-9.539375 24.366875 -9.76625 25.17125 -10 26 C-12.88909849 27.59660706 -14.69058796 28 -18 28 C-18.33 28.99 -18.66 29.98 -19 31 C-19 29.35 -19 27.7 -19 26 C-19.33 26.66 -19.66 27.32 -20 28 C-20.66 28 -21.32 28 -22 28 C-22 27.34 -22 26.68 -22 26 C-22.66 26 -23.32 26 -24 26 C-24.57110566 19.60361665 -20.91108286 15.73241026 -17 11 C-15.234375 9.41796875 -15.234375 9.41796875 -13.625 8.1875 C-10.7920501 6.22951466 -10.7920501 6.22951466 -10.125 3.1875 C-10.08375 2.465625 -10.0425 1.74375 -10 1 C-6.52674819 -0.1577506 -3.63932552 -0.06866652 0 0 Z " fill="#605249" transform="translate(90,90)"/>
<path d="M0 0 C1.875 2.4375 1.875 2.4375 2.5 5.875 C1.72794509 10.27571299 0.12918358 11.50079775 -3.125 14.4375 C-3.75792383 16.55030345 -3.75792383 16.55030345 -4.125 18.4375 C-5.115 19.0975 -6.105 19.7575 -7.125 20.4375 C-7.785 18.7875 -8.445 17.1375 -9.125 15.4375 C-9.455 16.7575 -9.785 18.0775 -10.125 19.4375 C-10.455 17.4575 -10.785 15.4775 -11.125 13.4375 C-11.785 13.4375 -12.445 13.4375 -13.125 13.4375 C-14.115 11.1275 -15.105 8.8175 -16.125 6.4375 C-18.02059964 6.26819605 -19.91649231 6.10217136 -21.8125 5.9375 C-22.86824219 5.8446875 -23.92398438 5.751875 -25.01171875 5.65625 C-27.73136025 5.4651585 -30.40039856 5.39706065 -33.125 5.4375 C-26.52250694 -1.16499306 -8.30036398 -4.15018199 0 0 Z " fill="#332118" transform="translate(97.125,38.5625)"/>
<path d="M0 0 C-0.309375 0.804375 -0.61875 1.60875 -0.9375 2.4375 C-1.03556277 8.02707791 2.47657366 10.9288141 6 15 C7.010895 16.3250921 8.0146576 17.65579833 9 19 C4.25 20 4.25 20 2 20 C1.67 19.34 1.34 18.68 1 18 C-0.99983534 18.79117904 -0.99983534 18.79117904 -3 20 C-3.33 20.99 -3.66 21.98 -4 23 C-11.75 23.125 -11.75 23.125 -14 22 C-14 21.01 -14 20.02 -14 19 C-15.98 18.01 -17.96 17.02 -20 16 C-19.67 15.34 -19.34 14.68 -19 14 C-17.66666667 13.66666667 -16.33333333 13.33333333 -15 13 C-14.67 12.34 -14.34 11.68 -14 11 C-13.34 11 -12.68 11 -12 11 C-12 10.34 -12 9.68 -12 9 C-10.02 8.67 -8.04 8.34 -6 8 C-6.66 7.67 -7.32 7.34 -8 7 C-6.56389554 2.69168661 -4.72692072 0 0 0 Z " fill="#D8B092" transform="translate(44,177)"/>
<path d="M0 0 C2.64 0 5.28 0 8 0 C8 0.33 8 0.66 8 1 C6.35 1.33 4.7 1.66 3 2 C2.67 3.32 2.34 4.64 2 6 C0.9275 6.103125 -0.145 6.20625 -1.25 6.3125 C-4.92375834 6.98602236 -6.25157596 7.65874989 -9 10 C-9.66 10 -10.32 10 -11 10 C-11.33 10.99 -11.66 11.98 -12 13 C-13.5625 14.6875 -13.5625 14.6875 -15 16 C-14.67 16.99 -14.34 17.98 -14 19 C-10.7 18.34 -7.4 17.68 -4 17 C-4.33 17.99 -4.66 18.98 -5 20 C-3.68 20 -2.36 20 -1 20 C-1 20.99 -1 21.98 -1 23 C-0.01 22.67 0.98 22.34 2 22 C2.33 24.31 2.66 26.62 3 29 C-5.91 29 -14.82 29 -24 29 C-22.75453595 25.26360784 -21.36595047 24.81243487 -18 23 C-17.34 23.66 -16.68 24.32 -16 25 C-13.89179203 24.6814823 -13.89179203 24.6814823 -12 24 C-12.5053125 23.45730469 -13.010625 22.91460937 -13.53125 22.35546875 C-14.1809375 21.64003906 -14.830625 20.92460937 -15.5 20.1875 C-16.47453125 19.12595703 -16.47453125 19.12595703 -17.46875 18.04296875 C-19 16 -19 16 -19 13 C-18.01 12.67 -17.02 12.34 -16 12 C-14.62804426 10.70644173 -13.28817344 9.37701298 -12 8 C-12.66 7.34 -13.32 6.68 -14 6 C-11.36 5.34 -8.72 4.68 -6 4 C-6 3.01 -6 2.02 -6 1 C-3.525 1.495 -3.525 1.495 -1 2 C-0.67 1.34 -0.34 0.68 0 0 Z " fill="#231713" transform="translate(64,171)"/>
<path d="M0 0 C0.99 0.33 1.98 0.66 3 1 C2.8125 2.875 2.8125 2.875 2 5 C1.21625 5.309375 0.4325 5.61875 -0.375 5.9375 C-3.17646648 6.76004231 -3.17646648 6.76004231 -4.3515625 9.31640625 C-6.72318092 13.17731112 -10.02003827 15.27669491 -13.625 17.9375 C-17.48768226 21.2919346 -19.24348447 25.27091974 -21 30 C-22.6168484 26.76630321 -21.00851816 23.69371743 -20.0625 20.375 C-19.86720703 19.66859375 -19.67191406 18.9621875 -19.47070312 18.234375 C-18.98685508 16.48780156 -18.49424877 14.74365876 -18 13 C-17.34 13 -16.68 13 -16 13 C-16 11.68 -16 10.36 -16 9 C-16.66 9 -17.32 9 -18 9 C-18.12246094 9.82757813 -18.24492188 10.65515625 -18.37109375 11.5078125 C-19.06476056 15.3596021 -20.02852131 19.10444874 -21.0625 22.875 C-21.24876953 23.56335938 -21.43503906 24.25171875 -21.62695312 24.9609375 C-22.08205811 26.64132514 -22.54066678 28.32076322 -23 30 C-24.32 30.33 -25.64 30.66 -27 31 C-26.32003285 20.63050094 -23.56281764 10.54265012 -16 3 C-15.01 2.67 -14.02 2.34 -13 2 C-12.34 2.33 -11.68 2.66 -11 3 C-11 5.66666667 -11 8.33333333 -11 11 C-10.61328125 10.36191406 -10.2265625 9.72382812 -9.828125 9.06640625 C-9.30734375 8.24011719 -8.7865625 7.41382812 -8.25 6.5625 C-7.73953125 5.73878906 -7.2290625 4.91507812 -6.703125 4.06640625 C-4.79478114 1.75100739 -3.8916412 1.43131623 -1 1 C-0.67 0.67 -0.34 0.34 0 0 Z " fill="#605049" transform="translate(82,83)"/>
<path d="M0 0 C0.66 0.33 1.32 0.66 2 1 C1.67 4.96 1.34 8.92 1 13 C1.99 13.33 2.98 13.66 4 14 C3.01 14.495 3.01 14.495 2 15 C2.33 15.66 2.66 16.32 3 17 C2.34 17 1.68 17 1 17 C1 17.66 1 18.32 1 19 C2.98 19 4.96 19 7 19 C7.33 19.66 7.66 20.32 8 21 C7.34 21 6.68 21 6 21 C6 21.66 6 22.32 6 23 C5.34 23.33 4.68 23.66 4 24 C4.66 25.65 5.32 27.3 6 29 C5.01 29.33 4.02 29.66 3 30 C3 30.99 3 31.98 3 33 C1.35 33.66 -0.3 34.32 -2 35 C-2 33.68 -2 32.36 -2 31 C-2.99 30.67 -3.98 30.34 -5 30 C-5 28.35 -5 26.7 -5 25 C-4.01 25 -3.02 25 -2 25 C-2.94653418 20.58284049 -3.96146048 16.84916125 -6.125 12.875 C-7.94863299 9.45737669 -8.39227119 6.92271191 -8 3 C-7.34 3 -6.68 3 -6 3 C-5.34 2.34 -4.68 1.68 -4 1 C-1.875 1.375 -1.875 1.375 0 2 C0 1.34 0 0.68 0 0 Z " fill="#EFC8A1" transform="translate(66,53)"/>
<path d="M0 0 C-0.56810529 5.79859195 -1.73679735 10.97686594 -3.5625 16.5 C-3.79646484 17.22703125 -4.03042969 17.9540625 -4.27148438 18.703125 C-4.84132781 20.47080261 -5.41975404 22.23570969 -6 24 C-6.66 24 -7.32 24 -8 24 C-8.33 25.65 -8.66 27.3 -9 29 C-9.66 28.67 -10.32 28.34 -11 28 C-11 27.01 -11 26.02 -11 25 C-12.98 25 -14.96 25 -17 25 C-17 24.34 -17 23.68 -17 23 C-19.475 22.01 -19.475 22.01 -22 21 C-20.71034824 19.62437146 -19.37310707 18.29233607 -18 17 C-17.34 17 -16.68 17 -16 17 C-15.62875 16.071875 -15.62875 16.071875 -15.25 15.125 C-13.76259631 12.59641373 -12.56321991 12.28160996 -10 11 C-8.93283296 9.20067421 -8.93283296 9.20067421 -8 7 C-3.74509804 0 -3.74509804 0 0 0 Z " fill="#251B18" transform="translate(115,116)"/>
<path d="M0 0 C0.66 0.33 1.32 0.66 2 1 C1.01 1.33 0.02 1.66 -1 2 C-1 2.99 -1 3.98 -1 5 C-1.66 5 -2.32 5 -3 5 C-3 5.66 -3 6.32 -3 7 C-0.36 7 2.28 7 5 7 C5 8.32 5 9.64 5 11 C2.69 11.33 0.38 11.66 -2 12 C-1.67 13.65 -1.34 15.3 -1 17 C-3.31 17.33 -5.62 17.66 -8 18 C-6.02 18.99 -4.04 19.98 -2 21 C-2 21.66 -2 22.32 -2 23 C-2.66 23 -3.32 23 -4 23 C-4 23.66 -4 24.32 -4 25 C-7.96 25.495 -7.96 25.495 -12 26 C-12 26.99 -12 27.98 -12 29 C-13.32 28.67 -14.64 28.34 -16 28 C-15.360625 27.34 -14.72125 26.68 -14.0625 26 C-11.41087498 22.14309088 -11.31332879 19.62159967 -11 15 C-11.66 14.67 -12.32 14.34 -13 14 C-11.35 13.34 -9.7 12.68 -8 12 C-8.33 11.67 -8.66 11.34 -9 11 C-9.04063832 9.33382885 -9.042721 7.66611905 -9 6 C-7.68 6.33 -6.36 6.66 -5 7 C-5.33 5.68 -5.66 4.36 -6 3 C-4.03533587 1.93224776 -2.03144641 0.93446535 0 0 Z " fill="#534642" transform="translate(89,135)"/>
<path d="M0 0 C0.66 0.33 1.32 0.66 2 1 C1.67 1.66 1.34 2.32 1 3 C2.65 3.33 4.3 3.66 6 4 C5.01 4.495 5.01 4.495 4 5 C4 5.66 4 6.32 4 7 C7.465 6.505 7.465 6.505 11 6 C11 7.32 11 8.64 11 10 C11.99 8.68 12.98 7.36 14 6 C13.34 11.28 12.68 16.56 12 22 C11.67 22 11.34 22 11 22 C10.505 19.525 10.505 19.525 10 17 C8.35 17.66 6.7 18.32 5 19 C5 18.34 5 17.68 5 17 C2.03 16.01 -0.94 15.02 -4 14 C-3.01 13.319375 -3.01 13.319375 -2 12.625 C-1.34 12.08875 -0.68 11.5525 0 11 C0 10.34 0 9.68 0 9 C-2.64 8.67 -5.28 8.34 -8 8 C-8 7.34 -8 6.68 -8 6 C-7.34 6 -6.68 6 -6 6 C-6 5.01 -6 4.02 -6 3 C-4.03533587 1.93224776 -2.03144641 0.93446535 0 0 Z " fill="#281D1B" transform="translate(94,134)"/>
<path d="M0 0 C0.99 0.33 1.98 0.66 3 1 C2.505 2.03125 2.01 3.0625 1.5 4.125 C0.02526098 7.52451578 -0.27291106 10.27021549 0 14 C-0.66 14 -1.32 14 -2 14 C-1.81050781 14.58910156 -1.62101562 15.17820312 -1.42578125 15.78515625 C-0.85279364 18.7657432 -1.90707332 20.75331084 -3.03125 23.49609375 C-4.98986768 28.55848865 -6.43954626 33.80376826 -8 39 C-8.94314127 35.58389775 -9.08065117 32.54865136 -9 29 C-9.66 29 -10.32 29 -11 29 C-11 26.36 -11 23.72 -11 21 C-10.01 20.67 -9.02 20.34 -8 20 C-8.33 19.34 -8.66 18.68 -9 18 C-9.5824233 11.70982839 -9.5824233 11.70982839 -7 8.5625 C-6.34 8.046875 -5.68 7.53125 -5 7 C-4.67 7.33 -4.34 7.66 -4 8 C-2.68 5.36 -1.36 2.72 0 0 Z " fill="#352620" transform="translate(89,100)"/>
<path d="M0 0 C1 3 1 3 0 6 C-0.99 6.495 -0.99 6.495 -2 7 C-3.01765927 8.99107248 -4.01577854 10.99218823 -5 13 C-5.99387334 14.33790641 -6.9926892 15.67218122 -8 17 C-8.33 17.99 -8.66 18.98 -9 20 C-11.3125 20.625 -11.3125 20.625 -14 21 C-14.99 20.34 -15.98 19.68 -17 19 C-16.01 18.01 -15.02 17.02 -14 16 C-14.99 14.68 -15.98 13.36 -17 12 C-15.68 12 -14.36 12 -13 12 C-12.67 11.01 -12.34 10.02 -12 9 C-14.97 8.505 -14.97 8.505 -18 8 C-18 7.34 -18 6.68 -18 6 C-18.66 5.34 -19.32 4.68 -20 4 C-13.25 2.875 -13.25 2.875 -11 4 C-11 4.66 -11 5.32 -11 6 C-7.88667752 5.33131686 -7.88667752 5.33131686 -6.8125 2.9375 C-6.544375 2.298125 -6.27625 1.65875 -6 1 C-5.67 1.99 -5.34 2.98 -5 4 C-4.34 4 -3.68 4 -3 4 C-2.67 3.01 -2.34 2.02 -2 1 C-1.34 0.67 -0.68 0.34 0 0 Z " fill="#B17A55" transform="translate(85,64)"/>
<path d="M0 0 C0.99 0.66 1.98 1.32 3 2 C2.67 3.32 2.34 4.64 2 6 C1.34 6 0.68 6 0 6 C-0.05671875 6.60714844 -0.1134375 7.21429688 -0.171875 7.83984375 C-1 10 -1 10 -3.328125 11.37890625 C-4.29234375 11.76949219 -5.2565625 12.16007812 -6.25 12.5625 C-9.23883332 13.794384 -11.90296885 14.93623252 -14.609375 16.71484375 C-17 18 -17 18 -21 17 C-16.71 14.69 -12.42 12.38 -8 10 C-11.412869 10 -12.29962595 10.6408698 -15.0625 12.5 C-18.79166667 15 -18.79166667 15 -21 15 C-19.78364124 11.35092371 -18.92757323 11.1171341 -15.625 9.375 C-14.83351563 8.94960937 -14.04203125 8.52421875 -13.2265625 8.0859375 C-11 7 -11 7 -8 6 C-8 5.34 -8 4.68 -8 4 C-8.55429688 4.37253906 -9.10859375 4.74507813 -9.6796875 5.12890625 C-10.40414062 5.60199219 -11.12859375 6.07507813 -11.875 6.5625 C-12.59429687 7.03816406 -13.31359375 7.51382813 -14.0546875 8.00390625 C-14.69664063 8.33261719 -15.33859375 8.66132812 -16 9 C-16.66 8.67 -17.32 8.34 -18 8 C-13.52284805 1.37381511 -7.89263676 -0.75890738 0 0 Z " fill="#382F28" transform="translate(111,92)"/>
<path d="M0 0 C0.66 0.33 1.32 0.66 2 1 C-0.3125 3.5 -0.3125 3.5 -3 6 C-3.99 6 -4.98 6 -6 6 C-5.896875 6.721875 -5.79375 7.44375 -5.6875 8.1875 C-6.1285967 12.1573703 -8.00483682 13.50403068 -11 16 C-11.66 16 -12.32 16 -13 16 C-13.33 16.99 -13.66 17.98 -14 19 C-14.99 19 -15.98 19 -17 19 C-17 19.66 -17 20.32 -17 21 C-17.928125 21.556875 -17.928125 21.556875 -18.875 22.125 C-22.07972455 24.95269814 -22.18511781 27.85768218 -23 32 C-23.66 32 -24.32 32 -25 32 C-25 31.34 -25 30.68 -25 30 C-25.66 30 -26.32 30 -27 30 C-27.33 30.99 -27.66 31.98 -28 33 C-29.28583797 29.09933716 -28.37100499 26.92148037 -26.828125 23.1484375 C-26.02607203 21.0676397 -25.45243726 19.04271975 -24.9375 16.875 C-24.1209679 13.50000066 -23.14610009 10.27457168 -22 7 C-21.34 7 -20.68 7 -20 7 C-20 8.32 -20 9.64 -20 11 C-20.66 11 -21.32 11 -22 11 C-22.33439553 12.81230433 -22.66748824 14.6248491 -23 16.4375 C-23.185625 17.44683594 -23.37125 18.45617187 -23.5625 19.49609375 C-24.02868656 21.74053928 -24.02868656 21.74053928 -24 23 C-23.566875 22.195625 -23.13375 21.39125 -22.6875 20.5625 C-19.81931274 16.17156605 -15.58178861 13.29707708 -11.4609375 10.1484375 C-9.09875446 8.08621421 -8.28821436 6.7587787 -7 4 C-3.9375 2.3125 -3.9375 2.3125 -1 1 C-0.67 0.67 -0.34 0.34 0 0 Z " fill="#1B0F0B" transform="translate(86,85)"/>
<path d="M0 0 C1.4606285 2.64738916 2 3.89448334 2 7 C0.73392393 7.53229326 -0.53810412 8.05044544 -1.8125 8.5625 C-2.52019531 8.85253906 -3.22789063 9.14257812 -3.95703125 9.44140625 C-6 10 -6 10 -9 9 C-10.34262065 9.29369827 -11.67696283 9.6278958 -13 10 C-16 10 -16 10 -18 9 C-18 8.34 -18 7.68 -18 7 C-19.65 7 -21.3 7 -23 7 C-22.67 5.68 -22.34 4.36 -22 3 C-14.72896356 0.67945645 -7.64070777 -0.19591558 0 0 Z " fill="#B08362" transform="translate(82,45)"/>
<path d="M0 0 C0 0.66 0 1.32 0 2 C-0.99 2.495 -0.99 2.495 -2 3 C-2.71706982 4.98248715 -3.38290413 6.98415349 -4 9 C-4.33 9.66 -4.66 10.32 -5 11 C-11.625 11.125 -11.625 11.125 -15 10 C-16.76776276 5.74256089 -15.2040323 2.24952578 -14 -2 C-8.87160006 -3.81975482 -4.82315618 -1.8599099 0 0 Z " fill="#E0AB87" transform="translate(82,56)"/>
<path d="M0 0 C0.33 0.66 0.66 1.32 1 2 C1.99 2.33 2.98 2.66 4 3 C6.25 5.3125 6.25 5.3125 8 8 C7.75 10.3125 7.75 10.3125 7 12 C6.34 10.68 5.68 9.36 5 8 C4.21753906 8.01160156 3.43507813 8.02320313 2.62890625 8.03515625 C1.61699219 8.04417969 0.60507813 8.05320312 -0.4375 8.0625 C-1.44683594 8.07410156 -2.45617187 8.08570313 -3.49609375 8.09765625 C-6 8 -6 8 -7 7 C-8.91112447 6.76257503 -10.82984273 6.58502428 -12.75 6.4375 C-14.32007812 6.31181641 -14.32007812 6.31181641 -15.921875 6.18359375 C-18.62536285 6.02234511 -21.29290413 5.96490802 -24 6 C-21.20501276 3.20501276 -17.98031746 2.77749616 -14.25 1.875 C-13.54617187 1.69324219 -12.84234375 1.51148438 -12.1171875 1.32421875 C-7.98934355 0.30376662 -4.28569306 -0.20215533 0 0 Z " fill="#1D1514" transform="translate(88,38)"/>
<path d="M0 0 C0.66 0.33 1.32 0.66 2 1 C2 1.66 2 2.32 2 3 C3.65 3 5.3 3 7 3 C6.67 4.32 6.34 5.64 6 7 C3.36 6.34 0.72 5.68 -2 5 C-2 5.99 -2 6.98 -2 8 C-3.0828125 8.3403125 -3.0828125 8.3403125 -4.1875 8.6875 C-10.40528024 11.58913078 -14.08361917 17.5762836 -18 23 C-18.66 21.68 -19.32 20.36 -20 19 C-19.34 18.67 -18.68 18.34 -18 18 C-18 15.69 -18 13.38 -18 11 C-16.02 11 -14.04 11 -12 11 C-11.9175 10.2575 -11.835 9.515 -11.75 8.75 C-10.83997396 5.41323787 -9.72201875 4.09984303 -7 2 C-5.68 2 -4.36 2 -3 2 C-2.01 1.34 -1.02 0.68 0 0 Z " fill="#251914" transform="translate(88,73)"/>
<path d="M0 0 C2.14392639 0.20817444 4.29007375 0.39422215 6.4375 0.5625 C8.01337891 0.68818359 8.01337891 0.68818359 9.62109375 0.81640625 C10.40613281 0.87699219 11.19117187 0.93757813 12 1 C12 1.33 12 1.66 12 2 C10.60587891 2.18175781 10.60587891 2.18175781 9.18359375 2.3671875 C-0.08175929 3.45441354 -0.08175929 3.45441354 -9 6 C-9.33 6.99 -9.66 7.98 -10 9 C-8.35 9 -6.7 9 -5 9 C-4.67 9.99 -4.34 10.98 -4 12 C-7 12 -7 12 -10 10 C-10.33 10.66 -10.66 11.32 -11 12 C-11 11.01 -11 10.02 -11 9 C-11.804375 8.773125 -12.60875 8.54625 -13.4375 8.3125 C-14.7059375 7.6628125 -14.7059375 7.6628125 -16 7 C-16.66015625 4.41796875 -16.66015625 4.41796875 -17 2 C-10.86875733 -0.18356127 -6.49762324 -1.34433584 0 0 Z " fill="#2C2116" transform="translate(69,43)"/>
<path d="M0 0 C0 0.66 0 1.32 0 2 C-0.66 2 -1.32 2 -2 2 C-2.33 2.99 -2.66 3.98 -3 5 C-5.0625 5.6875 -5.0625 5.6875 -7 6 C-5.04783565 7.95216435 -3.46800047 8.84826645 -1 10 C-1.33 10.99 -1.66 11.98 -2 13 C-1.34 13.33 -0.68 13.66 0 14 C-4.95 14 -9.9 14 -15 14 C-13.7704918 7.85245902 -13.7704918 7.85245902 -12 5 C-9 3 -9 3 -6 3 C-6 2.34 -6 1.68 -6 1 C-3 0 -3 0 0 0 Z " fill="#BFA893" transform="translate(32,186)"/>
<path d="M0 0 C2 3 2 3 2 5 C0.56150337 6.17086935 -0.87898954 7.33941807 -2.33203125 8.4921875 C-5.08340942 10.97938181 -6.94838791 13.92258186 -9 17 C-9.66 16.34 -10.32 15.68 -11 15 C-13.60280568 15.32041397 -13.60280568 15.32041397 -16 16 C-16 15.01 -16 14.02 -16 13 C-15.34 12.67 -14.68 12.34 -14 12 C-14 11.01 -14 10.02 -14 9 C-13.28972656 8.74605469 -12.57945313 8.49210937 -11.84765625 8.23046875 C-10.92855469 7.88628906 -10.00945312 7.54210937 -9.0625 7.1875 C-8.14597656 6.85105469 -7.22945312 6.51460938 -6.28515625 6.16796875 C-3.6659576 5.16590906 -3.6659576 5.16590906 -3 2 C-2.01 1.34 -1.02 0.68 0 0 Z " fill="#403731" transform="translate(114,96)"/>
<path d="M0 0 C1.9375 0.6875 1.9375 0.6875 4 2 C4.9375 4.375 4.9375 4.375 5 7 C3.5625 9.3125 3.5625 9.3125 2 11 C2.33 8.69 2.66 6.38 3 4 C2.34 4 1.68 4 1 4 C0.11442101 11.60649095 -0.03749171 19.06982079 0.16015625 26.71484375 C0.00884363 29.81859776 -0.35198523 31.4213416 -2 34 C-2.33 34 -2.66 34 -3 34 C-4.42580432 22.85679085 -3.9228943 11.89234829 -1 1 C-0.67 0.67 -0.34 0.34 0 0 Z " fill="#1D1510" transform="translate(54,126)"/>
<path d="M0 0 C-1.62339805 1.70884005 -3.29319053 3.37446717 -5 5 C-5.66 5 -6.32 5 -7 5 C-7 5.66 -7 6.32 -7 7 C-7.66 7 -8.32 7 -9 7 C-9 7.66 -9 8.32 -9 9 C-12.57644848 10.2380014 -15.33694766 9.74926071 -19 9 C-18.79375 8.38125 -18.5875 7.7625 -18.375 7.125 C-18.25125 6.42375 -18.1275 5.7225 -18 5 C-18.66 4.34 -19.32 3.68 -20 3 C-16.04 3 -12.08 3 -8 3 C-8 2.01 -8 1.02 -8 0 C-4.71303767 -0.79953138 -3.28976808 -1.09658936 0 0 Z " fill="#473936" transform="translate(85,161)"/>
<path d="M0 0 C0.1953125 6.0546875 0.1953125 6.0546875 0 8 C-0.66 8.66 -1.32 9.32 -2 10 C-2.99 10 -3.98 10 -5 10 C-5.33 10.99 -5.66 11.98 -6 13 C-8.31 12.67 -10.62 12.34 -13 12 C-4.26213592 0 -4.26213592 0 0 0 Z " fill="#6B5D59" transform="translate(78,150)"/>
<path d="M0 0 C0.66 0.33 1.32 0.66 2 1 C1.67 1.66 1.34 2.32 1 3 C2.65 3.33 4.3 3.66 6 4 C5.01 4.495 5.01 4.495 4 5 C4 5.66 4 6.32 4 7 C7.465 6.505 7.465 6.505 11 6 C9.875 7.5 9.875 7.5 8 9 C4.8125 9.1875 4.8125 9.1875 2 9 C2 9.99 2 10.98 2 12 C1.34 11.67 0.68 11.34 0 11 C0 10.34 0 9.68 0 9 C-2.64 8.67 -5.28 8.34 -8 8 C-8 7.34 -8 6.68 -8 6 C-7.34 6 -6.68 6 -6 6 C-6 5.01 -6 4.02 -6 3 C-4.03533587 1.93224776 -2.03144641 0.93446535 0 0 Z " fill="#413533" transform="translate(94,134)"/>
<path d="M0 0 C0.33 0.99 0.66 1.98 1 3 C1.99 3 2.98 3 4 3 C4.33 3.99 4.66 4.98 5 6 C8.96 6 12.92 6 17 6 C14 8 14 8 11 9 C9.783125 9.495 8.56625 9.99 7.3125 10.5 C3.20083248 12.06380676 -0.62790083 12.609634 -5 13 C-5.33 13.99 -5.66 14.98 -6 16 C-6.33 15.01 -6.66 14.02 -7 13 C-3.375 10 -3.375 10 0 10 C0 6.7 0 3.4 0 0 Z " fill="#5E5044" transform="translate(57,32)"/>
<path d="M0 0 C0.66 1.32 1.32 2.64 2 4 C1.34 4 0.68 4 0 4 C-0.12246094 4.82757813 -0.24492188 5.65515625 -0.37109375 6.5078125 C-1.06476056 10.3596021 -2.02852131 14.10444874 -3.0625 17.875 C-3.24876953 18.56335938 -3.43503906 19.25171875 -3.62695312 19.9609375 C-4.08205811 21.64132514 -4.54066678 23.32076322 -5 25 C-6.32 25.33 -7.64 25.66 -9 26 C-8.37094607 16.40692763 -5.85159337 7.73246266 0 0 Z " fill="#695A52" transform="translate(64,88)"/>
<path d="M0 0 C8.77342419 -0.6132879 8.77342419 -0.6132879 13.125 1.5625 C15 4 15 4 15.5 7.5 C14.99603747 11.02773771 14.42668267 12.47220555 12 15 C11.01 14.67 10.02 14.34 9 14 C9.57584432 11.61435923 10.22227595 9.33317216 11 7 C10.01 6.67 9.02 6.34 8 6 C8 5.34 8 4.68 8 4 C6.68 3.67 5.36 3.34 4 3 C4 2.34 4 1.68 4 1 C2.68 0.67 1.36 0.34 0 0 Z " fill="#291F1C" transform="translate(84,37)"/>
<path d="M0 0 C0.66 0 1.32 0 2 0 C2.71033431 5.52967941 3.30267176 10.49983036 2 16 C1.21625 16.103125 0.4325 16.20625 -0.375 16.3125 C-3.33045181 16.77595022 -3.33045181 16.77595022 -5 20 C-5.33 18.68 -5.66 17.36 -6 16 C-5.34 16 -4.68 16 -4 16 C-4.33 14.02 -4.66 12.04 -5 10 C-4.34 9.67 -3.68 9.34 -3 9 C-2.62243192 7.67851173 -2.2981424 6.34164079 -2 5 C-1.3530635 3.3255761 -0.69040574 1.65697379 0 0 Z " fill="#372D27" transform="translate(114,101)"/>
<path d="M0 0 C0.66 0.66 1.32 1.32 2 2 C1.375 4.375 1.375 4.375 0 7 C-3.125 8.3125 -3.125 8.3125 -6 9 C-5.34 9.66 -4.68 10.32 -4 11 C-4.61875 11.103125 -5.2375 11.20625 -5.875 11.3125 C-8.36526484 11.87525373 -8.36526484 11.87525373 -10 15 C-10.99 15 -11.98 15 -13 15 C-13.33 15.66 -13.66 16.32 -14 17 C-16 14 -16 14 -16 12 C-14.45509963 8.91019927 -12.11131592 8.31632597 -9 7 C-8.13375 6.71125 -7.2675 6.4225 -6.375 6.125 C-3.32631935 4.68088811 -1.93111886 2.71787099 0 0 Z " fill="#544542" transform="translate(58,169)"/>
<path d="M0 0 C1.98 0 3.96 0 6 0 C6.33 1.98 6.66 3.96 7 6 C6.01 6 5.02 6 4 6 C4.33 7.32 4.66 8.64 5 10 C4.34 10 3.68 10 3 10 C2.01 11.485 2.01 11.485 1 13 C0.34 12.34 -0.32 11.68 -1 11 C-0.67 10.01 -0.34 9.02 0 8 C-0.33 7.34 -0.66 6.68 -1 6 C-1.99 6.33 -2.98 6.66 -4 7 C-5.33106622 7.34227417 -6.66400079 7.67751743 -8 8 C-8 7.34 -8 6.68 -8 6 C-5.04518508 3.25624329 -4.22528092 3 0 3 C0 2.01 0 1.02 0 0 Z " fill="#504542" transform="translate(86,78)"/>
<path d="M0 0 C0.99 0.33 1.98 0.66 3 1 C2.67 1.66 2.34 2.32 2 3 C2.66 3.33 3.32 3.66 4 4 C2.68 5.32 1.36 6.64 0 8 C1.98 8.66 3.96 9.32 6 10 C6 10.66 6 11.32 6 12 C3.69 13.32 1.38 14.64 -1 16 C-1 16.99 -1 17.98 -1 19 C-2.32 18.67 -3.64 18.34 -5 18 C-3.35 12.06 -1.7 6.12 0 0 Z " fill="#74675F" transform="translate(85,123)"/>
<path d="M0 0 C3.56695591 1.1889853 4.28715826 2.34748618 6.5 5.3125 C7.38171875 6.48232422 7.38171875 6.48232422 8.28125 7.67578125 C9.13203125 8.82626953 9.13203125 8.82626953 10 10 C10.99963646 11.33360591 11.99951202 12.66703279 13 14 C8.25 15 8.25 15 6 15 C5.67 13.35 5.34 11.7 5 10 C4.34 10 3.68 10 3 10 C-1.09030544 4.85790173 -1.09030544 4.85790173 -0.75 1.625 C-0.5025 1.08875 -0.255 0.5525 0 0 Z " fill="#C3B5A8" transform="translate(40,182)"/>
<path d="M0 0 C0.886875 0.12375 1.77375 0.2475 2.6875 0.375 C0.35416667 5.04166667 -1.97916667 9.70833333 -4.3125 14.375 C-4.9725 13.715 -5.6325 13.055 -6.3125 12.375 C-7.3025 12.705 -8.2925 13.035 -9.3125 13.375 C-8.9234451 6.89075159 -7.30076881 0.82650213 0 0 Z " fill="#73645C" transform="translate(89.3125,95.625)"/>
<path d="M0 0 C1.65 0 3.3 0 5 0 C4.67 0.66 4.34 1.32 4 2 C6.31 2 8.62 2 11 2 C11 2.66 11 3.32 11 4 C8.36 4.66 5.72 5.32 3 6 C3.66 6.66 4.32 7.32 5 8 C4.34 9.65 3.68 11.3 3 13 C2.34 13 1.68 13 1 13 C1 12.34 1 11.68 1 11 C0.34 11 -0.32 11 -1 11 C-1 10.34 -1 9.68 -1 9 C-1.66 8.34 -2.32 7.68 -3 7 C-2.01 4.69 -1.02 2.38 0 0 Z " fill="#655652" transform="translate(88,115)"/>
<path d="M0 0 C0 0.66 0 1.32 0 2 C-2.31 2.66 -4.62 3.32 -7 4 C-7 5.65 -7 7.3 -7 9 C-12.5522888 11.8352113 -16.80112515 12.37952295 -23 12 C-22.195625 11.360625 -21.39125 10.72125 -20.5625 10.0625 C-18.7249496 8.59396498 -18.7249496 8.59396498 -17 7 C-14.66702567 6.95907063 -12.33294775 6.95758277 -10 7 C-9.67 5.35 -9.34 3.7 -9 2 C-2.25 0 -2.25 0 0 0 Z " fill="#322724" transform="translate(76,170)"/>
<path d="M0 0 C0.99 0.33 1.98 0.66 3 1 C2.8125 2.875 2.8125 2.875 2 5 C1.21625 5.309375 0.4325 5.61875 -0.375 5.9375 C-3.73808533 7.29874883 -4.25927083 8.89696105 -6 12 C-8.6289281 14.38246609 -9.38834178 15 -13 15 C-11.54824177 11.97896025 -9.92785042 9.13821115 -8.125 6.3125 C-7.63257812 5.52488281 -7.14015625 4.73726563 -6.6328125 3.92578125 C-4.76936769 1.72798629 -3.78183855 1.43648094 -1 1 C-0.67 0.67 -0.34 0.34 0 0 Z " fill="#6B5E59" transform="translate(82,83)"/>
<path d="M0 0 C2.64 0 5.28 0 8 0 C8 0.33 8 0.66 8 1 C6.35 1.33 4.7 1.66 3 2 C2.67 3.32 2.34 4.64 2 6 C0.453125 6.12375 0.453125 6.12375 -1.125 6.25 C-5.07951138 6.7564335 -5.07951138 6.7564335 -8.1875 9.125 C-11 11 -11 11 -13.375 10.75 C-13.91125 10.5025 -14.4475 10.255 -15 10 C-14.01 9.34 -13.02 8.68 -12 8 C-12.66 7.34 -13.32 6.68 -14 6 C-11.36 5.34 -8.72 4.68 -6 4 C-6 3.01 -6 2.02 -6 1 C-4.35 1.33 -2.7 1.66 -1 2 C-0.67 1.34 -0.34 0.68 0 0 Z " fill="#473937" transform="translate(64,171)"/>
<path d="M0 0 C-1 3 -1 3 -3 5 C-1.02 4.67 0.96 4.34 3 4 C2.45773019 7.79588866 0.79872437 9.47211993 -2 12 C-2.99 11.34 -3.98 10.68 -5 10 C-4.34 10 -3.68 10 -3 10 C-3 9.34 -3 8.68 -3 8 C-4.11375 7.87625 -5.2275 7.7525 -6.375 7.625 C-10 7 -10 7 -12 5 C-10.37750059 4.16180842 -8.75191503 3.3295884 -7.125 2.5 C-6.22007813 2.0359375 -5.31515625 1.571875 -4.3828125 1.09375 C-2 0 -2 0 0 0 Z " fill="#493C3A" transform="translate(101,106)"/>
<path d="M0 0 C0.66 0.33 1.32 0.66 2 1 C1.01 1.33 0.02 1.66 -1 2 C-1 2.99 -1 3.98 -1 5 C-1.66 5 -2.32 5 -3 5 C-3 5.66 -3 6.32 -3 7 C-0.36 7 2.28 7 5 7 C5 8.32 5 9.64 5 11 C1.8125 11.8125 1.8125 11.8125 -2 12 C-4.9375 9.5625 -4.9375 9.5625 -7 7 C-6.34 7 -5.68 7 -5 7 C-5.33 5.68 -5.66 4.36 -6 3 C-4.03533587 1.93224776 -2.03144641 0.93446535 0 0 Z " fill="#5B4D49" transform="translate(89,135)"/>
<path d="M0 0 C1.43791516 0.14168137 2.8753237 0.28851043 4.3125 0.4375 C5.11300781 0.51871094 5.91351563 0.59992187 6.73828125 0.68359375 C9 1 9 1 12 2 C12.8971875 1.7215625 12.8971875 1.7215625 13.8125 1.4375 C16.9288112 0.81423776 19.0902671 1.87578502 22 3 C22.33 4.98 22.66 6.96 23 9 C22.01 8.34 21.02 7.68 20 7 C20 6.34 20 5.68 20 5 C19.21753906 5.01160156 18.43507813 5.02320313 17.62890625 5.03515625 C16.61699219 5.04417969 15.60507813 5.05320312 14.5625 5.0625 C13.55316406 5.07410156 12.54382813 5.08570313 11.50390625 5.09765625 C9 5 9 5 8 4 C6.65252916 3.76924918 5.29622435 3.58846937 3.9375 3.4375 C2.638125 3.293125 1.33875 3.14875 0 3 C0 2.01 0 1.02 0 0 Z " fill="#190D09" transform="translate(73,41)"/>
<path d="M0 0 C0.66 0 1.32 0 2 0 C1.95875 0.763125 1.9175 1.52625 1.875 2.3125 C1.77919176 5.22718416 1.77919176 5.22718416 4 8 C3.5359375 8.7734375 3.5359375 8.7734375 3.0625 9.5625 C1.70940713 12.66665423 1.38640576 15.65115007 1 19 C0.01 19.33 -0.98 19.66 -2 20 C-2.22731216 13.06697907 -1.42002108 6.7831364 0 0 Z M4 2 C4 5 4 5 4 5 Z " fill="#302724" transform="translate(55,130)"/>
<path d="M0 0 C0.33 0.99 0.66 1.98 1 3 C1.66 3 2.32 3 3 3 C3.33 4.98 3.66 6.96 4 9 C3.01 9.495 3.01 9.495 2 10 C1.67 9.34 1.34 8.68 1 8 C-0.66500443 7.65846063 -2.33178677 7.32550502 -4 7 C-4.66 6.34 -5.32 5.68 -6 5 C-8.475 6.485 -8.475 6.485 -11 8 C-10.875 6.1875 -10.875 6.1875 -10 4 C-6.78223945 2.06934367 -3.68854359 0.70933531 0 0 Z " fill="#3B322E" transform="translate(94,69)"/>
<path d="M0 0 C1 3 1 3 0 6 C-0.99 6.495 -0.99 6.495 -2 7 C-3.01765927 8.99107248 -4.01577854 10.99218823 -5 13 C-5.96873032 14.35622245 -6.96434215 15.69417053 -8 17 C-8.66 17.99 -9.32 18.98 -10 20 C-9.979375 19.071875 -9.95875 18.14375 -9.9375 17.1875 C-9.84230396 13.97713989 -9.84230396 13.97713989 -11 11 C-9.68 10.67 -8.36 10.34 -7 10 C-7 9.34 -7 8.68 -7 8 C-6.34 8 -5.68 8 -5 8 C-4.5978125 6.576875 -4.5978125 6.576875 -4.1875 5.125 C-3 2 -3 2 0 0 Z " fill="#905C3B" transform="translate(85,64)"/>
<path d="M0 0 C0.99 0.66 1.98 1.32 3 2 C4.423125 1.6596875 4.423125 1.6596875 5.875 1.3125 C6.90625 1.209375 7.9375 1.10625 9 1 C10.65 2.65 12.3 4.3 14 6 C7.73 6 1.46 6 -5 6 C-3.86695008 2.60085025 -2.87481525 1.94745549 0 0 Z " fill="#957164" transform="translate(45,194)"/>
<path d="M0 0 C1.98 0 3.96 0 6 0 C7 3 7 3 6 6 C3 5 3 5 2 4 C1.29875 4.804375 0.5975 5.60875 -0.125 6.4375 C-3.26291593 9.23433811 -4.88758763 9.71308751 -9 10 C-8.54625 9.566875 -8.0925 9.13375 -7.625 8.6875 C-5.79975666 6.89201658 -5.79975666 6.89201658 -4 4 C-1.875 3.3125 -1.875 3.3125 0 3 C0 2.01 0 1.02 0 0 Z " fill="#62534F" transform="translate(56,167)"/>
<path d="M0 0 C0.99 0 1.98 0 3 0 C2.67 0.99 2.34 1.98 2 3 C1.34 3 0.68 3 0 3 C-0.05671875 3.60714844 -0.1134375 4.21429688 -0.171875 4.83984375 C-1 7 -1 7 -3.328125 8.37890625 C-4.29234375 8.76949219 -5.2565625 9.16007812 -6.25 9.5625 C-9.23883332 10.794384 -11.90296885 11.93623252 -14.609375 13.71484375 C-17 15 -17 15 -19.3125 14.6875 C-19.869375 14.460625 -20.42625 14.23375 -21 14 C-20.14277344 13.55269531 -19.28554687 13.10539062 -18.40234375 12.64453125 C-7.79436744 7.8627771 -7.79436744 7.8627771 0 0 Z " fill="#251C15" transform="translate(111,95)"/>
<path d="M0 0 C0.99 0.33 1.98 0.66 3 1 C2.505 2.03125 2.01 3.0625 1.5 4.125 C0.02526098 7.52451578 -0.27291106 10.27021549 0 14 C-0.66 14 -1.32 14 -2 14 C-1.773125 14.5775 -1.54625 15.155 -1.3125 15.75 C-1 18 -1 18 -2.4375 20.25 C-2.953125 20.8275 -3.46875 21.405 -4 22 C-5.125 20.25 -5.125 20.25 -6 18 C-5.35175393 16.65761434 -4.6818819 15.32561657 -4 14 C-3.61781233 12.34385343 -3.28604898 10.67542976 -3 9 C-2.42647428 5.64077791 -1.65896918 2.98614453 0 0 Z " fill="#180B09" transform="translate(89,100)"/>
<path d="M0 0 C0.66 0.99 1.32 1.98 2 3 C2.99 3 3.98 3 5 3 C5.33 3.99 5.66 4.98 6 6 C6.66 4.68 7.32 3.36 8 2 C9.125 5.75 9.125 5.75 8 8 C8 9.32 8 10.64 8 12 C6.02 12 4.04 12 2 12 C1.8046875 9.94921875 1.609375 7.8984375 1.4140625 5.84765625 C1.27742188 5.23792969 1.14078125 4.62820312 1 4 C0.34 3.67 -0.32 3.34 -1 3 C-0.67 2.01 -0.34 1.02 0 0 Z " fill="#B07A60" transform="translate(85,52)"/>
<path d="M0 0 C2.97 0.495 2.97 0.495 6 1 C5.375 3.875 5.375 3.875 4 7 C1.125 8.25 1.125 8.25 -2 9 C-3.34721283 9.63815344 -4.68747118 10.29325371 -6 11 C-4.79135813 7.56001929 -3.61442808 5.50075729 -1 3 C-0.67 2.01 -0.34 1.02 0 0 Z " fill="#BCA695" transform="translate(87,64)"/>
<path d="M0 0 C0 0.33 0 0.66 0 1 C-0.99902344 1.13277344 -1.99804688 1.26554687 -3.02734375 1.40234375 C-4.31769531 1.57894531 -5.60804687 1.75554688 -6.9375 1.9375 C-8.22527344 2.11152344 -9.51304688 2.28554688 -10.83984375 2.46484375 C-13.85466313 2.66162423 -13.85466313 2.66162423 -15 4 C-16.99958364 4.04080783 -19.00045254 4.04254356 -21 4 C-20.67 3.01 -20.34 2.02 -20 1 C-13.22528813 -1.55649505 -7.08992326 -0.87442387 0 0 Z " fill="#3E210E" transform="translate(81,44)"/>
<path d="M0 0 C-2.475 3.465 -2.475 3.465 -5 7 C-5.66 6.34 -6.32 5.68 -7 5 C-9.60280568 5.32041397 -9.60280568 5.32041397 -12 6 C-12 5.01 -12 4.02 -12 3 C-10.75823305 2.29773859 -9.50614401 1.61370891 -8.25 0.9375 C-7.20585938 0.36322266 -7.20585938 0.36322266 -6.140625 -0.22265625 C-4 -1 -4 -1 0 0 Z " fill="#3B302C" transform="translate(110,106)"/>
<path d="M0 0 C3.63 0 7.26 0 11 0 C11 0.99 11 1.98 11 3 C8.5 5.1875 8.5 5.1875 6 7 C5.34 6.67 4.68 6.34 4 6 C4 5.34 4 4.68 4 4 C2.35 4 0.7 4 -1 4 C-0.67 2.68 -0.34 1.36 0 0 Z " fill="#C4916D" transform="translate(60,48)"/>
<path d="M0 0 C0.99 0.33 1.98 0.66 3 1 C3.63934602 6.11476819 1.40533547 9.67254378 -1 14 C-2 12 -2 12 -2 9 C-2.31669821 6.66435067 -2.64820803 4.3306218 -3 2 C-2.01 1.34 -1.02 0.68 0 0 Z " fill="#91817A" transform="translate(68,85)"/>
<path d="M0 0 C0.99 0 1.98 0 3 0 C2.67 1.65 2.34 3.3 2 5 C1.01 5 0.02 5 -1 5 C-1 6.32 -1 7.64 -1 9 C-2.65 9.33 -4.3 9.66 -6 10 C-5.49111733 5.58968355 -2.96550928 3.10672401 0 0 Z " fill="#776A65" transform="translate(75,150)"/>
<path d="M0 0 C1.98 0.66 3.96 1.32 6 2 C6 4 6 4 4.625 5.625 C3 7 3 7 1 7 C0.67 6.34 0.34 5.68 0 5 C-0.66 6.32 -1.32 7.64 -2 9 C-2.99 9 -3.98 9 -5 9 C-5 8.34 -5 7.68 -5 7 C-5.66 6.67 -6.32 6.34 -7 6 C-5.35 6 -3.7 6 -2 6 C-1.34 4.02 -0.68 2.04 0 0 Z " fill="#C78E67" transform="translate(79,61)"/>
<path d="M0 0 C0.66 0.33 1.32 0.66 2 1 C1.67 2.32 1.34 3.64 1 5 C-1.31 5 -3.62 5 -6 5 C-5.67 7.64 -5.34 10.28 -5 13 C-5.66 12.67 -6.32 12.34 -7 12 C-7.4140625 9.93359375 -7.4140625 9.93359375 -7.625 7.4375 C-7.69976562 6.61121094 -7.77453125 5.78492188 -7.8515625 4.93359375 C-7.90054688 4.29550781 -7.94953125 3.65742187 -8 3 C-7.34 3 -6.68 3 -6 3 C-5.34 2.34 -4.68 1.68 -4 1 C-1.875 1.375 -1.875 1.375 0 2 C0 1.34 0 0.68 0 0 Z " fill="#E1B79B" transform="translate(66,53)"/>
<path d="M0 0 C-1.32 1.32 -2.64 2.64 -4 4 C-3.67 4.99 -3.34 5.98 -3 7 C-2.01 7.33 -1.02 7.66 0 8 C-0.99 9.485 -0.99 9.485 -2 11 C-3.00893131 9.90398831 -4.00688225 8.79786082 -5 7.6875 C-5.556875 7.07261719 -6.11375 6.45773438 -6.6875 5.82421875 C-8 4 -8 4 -8 1 C-4.93251126 -0.86240388 -3.40254489 -1.2151946 0 0 Z " fill="#3F2C2C" transform="translate(53,183)"/>
<path d="M0 0 C0.66 0 1.32 0 2 0 C2.33 0.99 2.66 1.98 3 3 C4.98 3 6.96 3 9 3 C9 6 9 6 8 8 C6.35636866 8.72159424 4.68949614 9.39351421 3 10 C3 8.68 3 7.36 3 6 C2.01 5.67 1.02 5.34 0 5 C0 3.35 0 1.7 0 0 Z " fill="#C5B9B1" transform="translate(61,78)"/>
<path d="M0 0 C0.66 0.33 1.32 0.66 2 1 C2 1.66 2 2.32 2 3 C3.65 3 5.3 3 7 3 C6.67 4.32 6.34 5.64 6 7 C3.36 6.34 0.72 5.68 -2 5 C-2 5.99 -2 6.98 -2 8 C-2.99 7.67 -3.98 7.34 -5 7 C-2.25 1.125 -2.25 1.125 0 0 Z " fill="#382D2C" transform="translate(88,73)"/>
<path d="M0 0 C0.33 2.31 0.66 4.62 1 7 C-1.64 7 -4.28 7 -7 7 C-7.33 6.34 -7.66 5.68 -8 5 C-2.25 0 -2.25 0 0 0 Z " fill="#362B2A" transform="translate(66,193)"/>
<path d="M0 0 C6.70459519 3.95623632 6.70459519 3.95623632 7.9375 8.3125 C7.958125 9.199375 7.97875 10.08625 8 11 C5.125 11.125 5.125 11.125 2 11 C1.34 10.34 0.68 9.68 0 9 C1.65 9 3.3 9 5 9 C3.63016497 5.83884224 3.0109362 5.0072908 0 3 C0 2.01 0 1.02 0 0 Z " fill="#4D403A" transform="translate(80,141)"/>
<path d="M0 0 C0.79921875 0.28746094 1.5984375 0.57492188 2.421875 0.87109375 C3.32679687 1.21333984 3.32679687 1.21333984 4.25 1.5625 C4.25 2.2225 4.25 2.8825 4.25 3.5625 C3.26 4.0575 3.26 4.0575 2.25 4.5625 C1.59444881 7.08983235 1.59444881 7.08983235 1.25 9.5625 C0.92 9.5625 0.59 9.5625 0.25 9.5625 C0.25 6.9225 0.25 4.2825 0.25 1.5625 C-5.07170494 1.26687633 -5.07170494 1.26687633 -9.75 3.5625 C-9.42 2.2425 -9.09 0.9225 -8.75 -0.4375 C-5.32056481 -1.62521723 -3.37215325 -1.23976223 0 0 Z " fill="#D59C78" transform="translate(77.75,54.4375)"/>
<path d="M0 0 C0 0.66 0 1.32 0 2 C-2.22850277 2.33774332 -4.45783467 2.6700187 -6.6875 3 C-8.54955078 3.2784375 -8.54955078 3.2784375 -10.44921875 3.5625 C-13.35886371 3.92100411 -16.07700022 4.08942256 -19 4 C-14.12550254 -0.87449746 -6.45440137 -0.16549747 0 0 Z " fill="#88593B" transform="translate(82,45)"/>
<path d="M0 0 C3.48670834 1.1094072 6.77484237 2.26337666 10 4 C10 4.66 10 5.32 10 6 C8.35 6.33 6.7 6.66 5 7 C5 6.34 5 5.68 5 5 C2.69 4.67 0.38 4.34 -2 4 C-1.34 2.68 -0.68 1.36 0 0 Z " fill="#60524D" transform="translate(86,128)"/>
<path d="M0 0 C2.875 0.1875 2.875 0.1875 6 1 C7.375 3.5625 7.375 3.5625 8 6 C4.7 6 1.4 6 -2 6 C-1.34 4.02 -0.68 2.04 0 0 Z " fill="#F8EDDB" transform="translate(64,76)"/>
<path d="M0 0 C0.99 0 1.98 0 3 0 C2.34 3.3 1.68 6.6 1 10 C-0.32 10.33 -1.64 10.66 -3 11 C-2.67 8.03 -2.34 5.06 -2 2 C-1.34 2 -0.68 2 0 2 C0 1.34 0 0.68 0 0 Z " fill="#534844" transform="translate(58,103)"/>
<path d="M0 0 C2.31 0 4.62 0 7 0 C6.67 1.65 6.34 3.3 6 5 C5.01 5 4.02 5 3 5 C2.67 5.66 2.34 6.32 2 7 C2 6.34 2 5.68 2 5 C1.34 5 0.68 5 0 5 C0 3.35 0 1.7 0 0 Z " fill="#FACBA3" transform="translate(60,58)"/>
<path d="M0 0 C3 1 3 1 5 4 C5.125 7.1875 5.125 7.1875 5 10 C4.34 10 3.68 10 3 10 C-1.09030544 4.85790173 -1.09030544 4.85790173 -0.75 1.625 C-0.5025 1.08875 -0.255 0.5525 0 0 Z " fill="#EFE1DB" transform="translate(40,182)"/>
<path d="M0 0 C0.99 0 1.98 0 3 0 C4.49084832 4.47254497 4.49084832 8.52745503 3 13 C2.01 12.67 1.02 12.34 0 12 C0 10.68 0 9.36 0 8 C0.66 7.67 1.32 7.34 2 7 C2 6.34 2 5.68 2 5 C1.34 4.67 0.68 4.34 0 4 C0 2.68 0 1.36 0 0 Z " fill="#C2B7B1" transform="translate(48,161)"/>
<path d="M0 0 C2.5 1.125 2.5 1.125 5 3 C5.3125 6.1875 5.3125 6.1875 5 9 C3.02 9.99 3.02 9.99 1 11 C0.67 7.37 0.34 3.74 0 0 Z " fill="#190F09" transform="translate(51,161)"/>
<path d="M0 0 C1.5625 1.1875 1.5625 1.1875 3 3 C2.6875 5.6875 2.6875 5.6875 2 8 C0.35 8 -1.3 8 -3 8 C-2.45276317 4.62537285 -1.9451 2.91765 0 0 Z " fill="#473933" transform="translate(83,107)"/>
<path d="M0 0 C-2.37000248 2.65845673 -4.81984154 4.11161791 -8 5.6875 C-8.86625 6.12449219 -9.7325 6.56148438 -10.625 7.01171875 C-13 8 -13 8 -16 8 C-15.67 6.68 -15.34 5.36 -15 4 C-15 4.66 -15 5.32 -15 6 C-14.16855469 5.48308594 -13.33710937 4.96617188 -12.48046875 4.43359375 C-11.39378906 3.77488281 -10.30710937 3.11617188 -9.1875 2.4375 C-8.10855469 1.77621094 -7.02960938 1.11492187 -5.91796875 0.43359375 C-3 -1 -3 -1 0 0 Z " fill="#594C49" transform="translate(105,101)"/>
<path d="M0 0 C0.99 0.33 1.98 0.66 3 1 C2.9375 2.8125 2.9375 2.8125 2 5 C-1.5625 6.75 -1.5625 6.75 -5 8 C-5 7.34 -5 6.68 -5 6 C-5.66 5.67 -6.32 5.34 -7 5 C-4.94766315 2.7522025 -3.99332739 1.9977758 -1 1 C-0.67 0.67 -0.34 0.34 0 0 Z " fill="#5D524D" transform="translate(82,83)"/>
<path d="M0 0 C2.97 0 5.94 0 9 0 C9 0.99 9 1.98 9 3 C9.99 3.33 10.98 3.66 12 4 C8.04 4 4.08 4 0 4 C0 2.68 0 1.36 0 0 Z " fill="#A26A4D" transform="translate(20,196)"/>
<path d="M0 0 C-0.33 1.65 -0.66 3.3 -1 5 C-2.65 5 -4.3 5 -6 5 C-6.33 3.68 -6.66 2.36 -7 1 C-3.375 -1.125 -3.375 -1.125 0 0 Z " fill="#2D2524" transform="translate(81,182)"/>
<path d="M0 0 C1.22602512 3.67807537 0.70295577 5.88243927 0.0625 9.6875 C-0.13214844 10.86699219 -0.32679687 12.04648438 -0.52734375 13.26171875 C-0.68332031 14.16535156 -0.83929688 15.06898438 -1 16 C-1.33 16 -1.66 16 -2 16 C-2.33 14.35 -2.66 12.7 -3 11 C-3.99 11.495 -3.99 11.495 -5 12 C-3.14285714 3.42857143 -3.14285714 3.42857143 0 0 Z " fill="#302521" transform="translate(107,140)"/>
<path d="M0 0 C-3 2 -3 2 -6 3 C-6.99 3.37125 -7.98 3.7425 -9 4.125 C-12 5 -12 5 -15 4 C-14 2 -14 2 -12 0.875 C-7.95982523 -0.30338431 -4.17793151 -0.16384045 0 0 Z " fill="#645752" transform="translate(74,38)"/>
<path d="M0 0 C0.66 0.33 1.32 0.66 2 1 C1.01 1.33 0.02 1.66 -1 2 C-1 2.99 -1 3.98 -1 5 C-1.99 5 -2.98 5 -4 5 C-4 5.99 -4 6.98 -4 8 C-3.01 8 -2.02 8 -1 8 C-0.67 8.99 -0.34 9.98 0 11 C-3.26954202 10.43628586 -4.82575883 9.50037734 -7 7 C-6.34 7 -5.68 7 -5 7 C-5.33 5.68 -5.66 4.36 -6 3 C-4.03533587 1.93224776 -2.03144641 0.93446535 0 0 Z " fill="#645750" transform="translate(89,135)"/>
<path d="M0 0 C1.4589426 0.47730838 2.91713496 0.95691042 4.375 1.4375 C5.18710938 1.70433594 5.99921875 1.97117188 6.8359375 2.24609375 C9 3 9 3 11 4 C11 4.66 11 5.32 11 6 C9.234375 6.6796875 9.234375 6.6796875 7 7 C5.078125 5.8203125 5.078125 5.8203125 3.25 4.125 C2.63640625 3.57070312 2.0228125 3.01640625 1.390625 2.4453125 C0 1 0 1 0 0 Z " fill="#453936" transform="translate(88,147)"/>
<path d="M0 0 C1.9375 0.75 1.9375 0.75 4 2 C4.75 4.125 4.75 4.125 5 6 C2 8 2 8 -2 8 C-2 7.34 -2 6.68 -2 6 C-2.66 5.67 -3.32 5.34 -4 5 C-2.35 4.34 -0.7 3.68 1 3 C0.67 2.01 0.34 1.02 0 0 Z " fill="#645752" transform="translate(80,144)"/>
<path d="M0 0 C-0.33 1.32 -0.66 2.64 -1 4 C-3.31 4.33 -5.62 4.66 -8 5 C-8 3.68 -8 2.36 -8 1 C-4.93251126 -0.86240388 -3.40254489 -1.2151946 0 0 Z " fill="#814C2A" transform="translate(77,50)"/>
<path d="M0 0 C2.33944736 0.28730055 4.6739143 0.61936779 7 1 C6.34 2.98 5.68 4.96 5 7 C4.34 7 3.68 7 3 7 C3 6.34 3 5.68 3 5 C2.34 5 1.68 5 1 5 C1 4.34 1 3.68 1 3 C0.34 2.34 -0.32 1.68 -1 1 C-0.67 0.67 -0.34 0.34 0 0 Z " fill="#60514B" transform="translate(86,121)"/>
<path d="M0 0 C0.66 0.33 1.32 0.66 2 1 C-1.75 4 -1.75 4 -4 4 C-3.67 5.65 -3.34 7.3 -3 9 C-4.65 8.67 -6.3 8.34 -8 8 C-8 7.34 -8 6.68 -8 6 C-7.34 6 -6.68 6 -6 6 C-6 5.01 -6 4.02 -6 3 C-4.03533587 1.93224776 -2.03144641 0.93446535 0 0 Z " fill="#453734" transform="translate(94,134)"/>
<path d="M0 0 C1.9375 0.6875 1.9375 0.6875 4 2 C4.9375 4.375 4.9375 4.375 5 7 C3.5625 9.3125 3.5625 9.3125 2 11 C2.33 8.69 2.66 6.38 3 4 C2.34 4 1.68 4 1 4 C1 4.66 1 5.32 1 6 C0.34 6 -0.32 6 -1 6 C-1.042721 4.33388095 -1.04063832 2.66617115 -1 1 C-0.67 0.67 -0.34 0.34 0 0 Z " fill="#211813" transform="translate(54,126)"/>
<path d="M0 0 C-1.95519384 1.17192047 -3.9142539 2.3373929 -5.875 3.5 C-6.96554688 4.1496875 -8.05609375 4.799375 -9.1796875 5.46875 C-12 7 -12 7 -14 7 C-12.79476952 3.38430856 -11.92814436 3.05330455 -8.6875 1.25 C-7.90761719 0.80140625 -7.12773438 0.3528125 -6.32421875 -0.109375 C-3.69699083 -1.11611108 -2.59072612 -0.97226335 0 0 Z " fill="#281B19" transform="translate(104,100)"/>
<path d="M0 0 C0.33 0.66 0.66 1.32 1 2 C0.0625 4.625 0.0625 4.625 -1 7 C-3.97 6.505 -3.97 6.505 -7 6 C-4.9859524 2.9789286 -3.36720387 1.39332574 0 0 Z " fill="#AB998C" transform="translate(75,78)"/>
<path d="M0 0 C-1.75 4.875 -1.75 4.875 -4 6 C-4.33 6.99 -4.66 7.98 -5 9 C-5.66 8.67 -6.32 8.34 -7 8 C-7 4 -7 4 -5.1875 1.75 C-3 0 -3 0 0 0 Z " fill="#C3BAB2" transform="translate(44,177)"/>
<path d="M0 0 C0.66 0.66 1.32 1.32 2 2 C1.45730469 2.26554687 0.91460937 2.53109375 0.35546875 2.8046875 C-0.71767578 3.33449219 -0.71767578 3.33449219 -1.8125 3.875 C-2.52019531 4.22304687 -3.22789063 4.57109375 -3.95703125 4.9296875 C-6.21246418 6.0656486 -6.21246418 6.0656486 -9 8 C-10.32 7.67 -11.64 7.34 -13 7 C-8.71 4.69 -4.42 2.38 0 0 Z " fill="#302220" transform="translate(103,102)"/>
<path d="M0 0 C2 2 2 2 4 5 C3.01 5.33 2.02 5.66 1 6 C0.34 5.34 -0.32 4.68 -1 4 C-3.475 5.485 -3.475 5.485 -6 7 C-5.8125 5.1875 -5.8125 5.1875 -5 3 C-2.4375 1.25 -2.4375 1.25 0 0 Z " fill="#554B47" transform="translate(89,70)"/>
<path d="M0 0 C0.66 0 1.32 0 2 0 C1.34 1.32 0.68 2.64 0 4 C-0.66 4 -1.32 4 -2 4 C-2.33 4.99 -2.66 5.98 -3 7 C-4.65 7 -6.3 7 -8 7 C-6.29374499 4.21611025 -5.52373261 3.14615794 -2.3125 2.25 C-1.549375 2.1675 -0.78625 2.085 0 2 C0 1.34 0 0.68 0 0 Z " fill="#BC9378" transform="translate(43,193)"/>
<path d="M0 0 C-1 3 -1 3 -3.06640625 4.16796875 C-3.89011719 4.50441406 -4.71382813 4.84085937 -5.5625 5.1875 C-6.38878906 5.53167969 -7.21507813 5.87585938 -8.06640625 6.23046875 C-9.02353516 6.61138672 -9.02353516 6.61138672 -10 7 C-10.66 6.34 -11.32 5.68 -12 5 C-10.37750059 4.16180842 -8.75191503 3.3295884 -7.125 2.5 C-6.22007813 2.0359375 -5.31515625 1.571875 -4.3828125 1.09375 C-2 0 -2 0 0 0 Z " fill="#645553" transform="translate(101,106)"/>
<path d="M0 0 C0 0.66 0 1.32 0 2 C-0.66 2 -1.32 2 -2 2 C-2 2.66 -2 3.32 -2 4 C-3.96147874 5.38938077 -5.96166576 6.7260411 -8 8 C-8.66 7.67 -9.32 7.34 -10 7 C-4.84210526 0 -4.84210526 0 0 0 Z " fill="#372A27" transform="translate(103,93)"/>
<path d="M0 0 C0.66 0.33 1.32 0.66 2 1 C-2.625 5.875 -2.625 5.875 -6 7 C-6.66 7.99 -7.32 8.98 -8 10 C-8.5 7.8125 -8.5 7.8125 -8 5 C-5.56899818 2.89646189 -2.96359654 1.24970939 0 0 Z " fill="#120704" transform="translate(86,85)"/>
<path d="M0 0 C2 3 2 3 2 6 C-0.31 6 -2.62 6 -5 6 C-3.86695008 2.60085025 -2.87481525 1.94745549 0 0 Z " fill="#694733" transform="translate(45,194)"/>
<path d="M0 0 C0.99 0.66 1.98 1.32 3 2 C2.01 3.485 2.01 3.485 1 5 C0.01 5 -0.98 5 -2 5 C-2.33 5.99 -2.66 6.98 -3 8 C-3.33 6.35 -3.66 4.7 -4 3 C-2.68 2.01 -1.36 1.02 0 0 Z " fill="#5D534C" transform="translate(46,177)"/>
<path d="M0 0 C0.66 0.66 1.32 1.32 2 2 C1.01 3.485 1.01 3.485 0 5 C1.98 5 3.96 5 6 5 C6 5.33 6 5.66 6 6 C3.36 6 0.72 6 -2 6 C-2.33 6.99 -2.66 7.98 -3 9 C-3.75 7.3125 -3.75 7.3125 -4 5 C-2.0625 2.25 -2.0625 2.25 0 0 Z " fill="#574946" transform="translate(66,165)"/>
<path d="M0 0 C0.66 0 1.32 0 2 0 C1.5206753 4.31392226 0.2542015 6.16569547 -3 9 C-3.33 7.68 -3.66 6.36 -4 5 C-3.34 5 -2.68 5 -2 5 C-1.7834375 4.0409375 -1.7834375 4.0409375 -1.5625 3.0625 C-1 1 -1 1 0 0 Z " fill="#453C39" transform="translate(107,118)"/>
<path d="M0 0 C0.33 0.99 0.66 1.98 1 3 C1.99 3 2.98 3 4 3 C4 3.66 4 4.32 4 5 C4.66 5.33 5.32 5.66 6 6 C2.7 6 -0.6 6 -4 6 C-3.01 5.67 -2.02 5.34 -1 5 C-0.67 3.35 -0.34 1.7 0 0 Z " fill="#6D5D52" transform="translate(74,109)"/>
<path d="M0 0 C0.66 0.99 1.32 1.98 2 3 C1.01 3 0.02 3 -1 3 C-0.67 4.32 -0.34 5.64 0 7 C-0.66 7 -1.32 7 -2 7 C-2.99 8.485 -2.99 8.485 -4 10 C-4.66 9.34 -5.32 8.68 -6 8 C-4.02 5.36 -2.04 2.72 0 0 Z " fill="#3D2F2B" transform="translate(91,81)"/>
<path d="M0 0 C0.33 0.99 0.66 1.98 1 3 C-0.65 4.65 -2.3 6.3 -4 8 C-4.99 7.67 -5.98 7.34 -7 7 C-3.375 1.125 -3.375 1.125 0 0 Z " fill="#251C19" transform="translate(84,76)"/>
<path d="M0 0 C0.66 0.66 1.32 1.32 2 2 C1.8125 4 1.8125 4 1 6 C0.01 6.66 -0.98 7.32 -2 8 C-2.66 6.02 -3.32 4.04 -4 2 C-2.68 1.34 -1.36 0.68 0 0 Z " fill="#894527" transform="translate(92,51)"/>
<path d="M0 0 C1.32 0.33 2.64 0.66 4 1 C2.90716423 2.03295436 1.80029421 3.05107835 0.6875 4.0625 C0.07261719 4.63097656 -0.54226562 5.19945312 -1.17578125 5.78515625 C-1.77777344 6.18605469 -2.37976563 6.58695313 -3 7 C-3.99 6.67 -4.98 6.34 -6 6 C-5.34 6 -4.68 6 -4 6 C-4 5.34 -4 4.68 -4 4 C-3.34 4 -2.68 4 -2 4 C-1.34 2.68 -0.68 1.36 0 0 Z " fill="#322725" transform="translate(82,162)"/>
<path d="M0 0 C1.125 3.75 1.125 3.75 0 6 C-0.99 5.67 -1.98 5.34 -3 5 C-2.34 5 -1.68 5 -1 5 C-1 4.34 -1 3.68 -1 3 C-3.31 3 -5.62 3 -8 3 C-7.67 2.34 -7.34 1.68 -7 1 C-4.61370553 0.38812962 -2.46459429 0 0 0 Z " fill="#3B2D2A" transform="translate(98,119)"/>
<path d="M0 0 C0.99 0.33 1.98 0.66 3 1 C2.01 3.31 1.02 5.62 0 8 C-0.66 8 -1.32 8 -2 8 C-2.33 8.66 -2.66 9.32 -3 10 C-2.49287967 6.28111761 -1.88391785 3.26545761 0 0 Z " fill="#281A14" transform="translate(89,100)"/>
<path d="M0 0 C-0.99 0.33 -1.98 0.66 -3 1 C-3.33 1.99 -3.66 2.98 -4 4 C-4.99 4 -5.98 4 -7 4 C-7 4.66 -7 5.32 -7 6 C-8.98 6.99 -8.98 6.99 -11 8 C-10.67 7.01 -10.34 6.02 -10 5 C-9.34 5 -8.68 5 -8 5 C-7.938125 4.38125 -7.87625 3.7625 -7.8125 3.125 C-7 1 -7 1 -4.5625 -0.3125 C-2 -1 -2 -1 0 0 Z " fill="#1F1610" transform="translate(76,100)"/>
<path d="M0 0 C1.98 0 3.96 0 6 0 C6.33 0.66 6.66 1.32 7 2 C6.34 2 5.68 2 5 2 C5 2.66 5 3.32 5 4 C3.35 4.33 1.7 4.66 0 5 C0 3.35 0 1.7 0 0 Z " fill="#DAAE86" transform="translate(67,72)"/>
<path d="M0 0 C1.32 0.66 2.64 1.32 4 2 C3.34 3.65 2.68 5.3 2 7 C1.01 7 0.02 7 -1 7 C-1.04254356 5.00045254 -1.04080783 2.99958364 -1 1 C-0.67 0.67 -0.34 0.34 0 0 Z " fill="#D4C9C4" transform="translate(89,64)"/>
<path d="M0 0 C1.98 0 3.96 0 6 0 C2.63594943 2.9603645 -0.65212478 4.03380551 -5 5 C-5.66 4.67 -6.32 4.34 -7 4 C-7 3.34 -7 2.68 -7 2 C-4.69 2 -2.38 2 0 2 C0 1.34 0 0.68 0 0 Z " fill="#493F3C" transform="translate(74,37)"/>
<path d="M0 0 C1.32 0.66 2.64 1.32 4 2 C3 4 2 6 1 8 C0.01 7.67 -0.98 7.34 -2 7 C-1.34 4.69 -0.68 2.38 0 0 Z " fill="#5B4E49" transform="translate(78,152)"/>
<path d="M0 0 C0 0.66 0 1.32 0 2 C0.66 2.33 1.32 2.66 2 3 C0.02 3.66 -1.96 4.32 -4 5 C-4 4.34 -4 3.68 -4 3 C-4.99 2.34 -5.98 1.68 -7 1 C-3.375 -1.125 -3.375 -1.125 0 0 Z " fill="#A5714D" transform="translate(80,50)"/>
<path d="M0 0 C2.97 0 5.94 0 9 0 C6.08235 1.9451 4.37462715 2.45276317 1 3 C0.67 3.99 0.34 4.98 0 6 C0 4.02 0 2.04 0 0 Z " fill="#56473C" transform="translate(71,115)"/>
<path d="M0 0 C0.33 1.32 0.66 2.64 1 4 C-0.32 4.99 -1.64 5.98 -3 7 C-3.99 6.01 -4.98 5.02 -6 4 C-4.02 2.68 -2.04 1.36 0 0 Z " fill="#20140F" transform="translate(79,92)"/>
<path d="M0 0 C0.99 0.33 1.98 0.66 3 1 C2.01 1.33 1.02 1.66 0 2 C-0.309375 2.639375 -0.61875 3.27875 -0.9375 3.9375 C-2.2342338 6.45468915 -3.4221737 6.96886948 -6 8 C-6.33 7.34 -6.66 6.68 -7 6 C-5.68 5.67 -4.36 5.34 -3 5 C-2.814375 4.0409375 -2.814375 4.0409375 -2.625 3.0625 C-2.41875 2.381875 -2.2125 1.70125 -2 1 C-1.34 0.67 -0.68 0.34 0 0 Z " fill="#453D35" transform="translate(111,93)"/>
<path d="M0 0 C0.33 0.66 0.66 1.32 1 2 C0.66226563 2.47050781 0.32453125 2.94101563 -0.0234375 3.42578125 C-0.69246094 4.35970703 -0.69246094 4.35970703 -1.375 5.3125 C-1.81585938 5.92738281 -2.25671875 6.54226562 -2.7109375 7.17578125 C-3.83410907 8.7652392 -4.92041447 10.38062171 -6 12 C-5.73781251 7.5428126 -5.42288711 5.48477302 -2.4375 2.0625 C-1.633125 1.381875 -0.82875 0.70125 0 0 Z " fill="#8C766A" transform="translate(81,72)"/>
<path d="M0 0 C0 0.66 0 1.32 0 2 C-0.66 2 -1.32 2 -2 2 C-2.4640625 3.175625 -2.4640625 3.175625 -2.9375 4.375 C-4 7 -4 7 -5 9 C-5.66 9 -6.32 9 -7 9 C-6.53149863 4.78348764 -4.94559315 0 0 0 Z " fill="#39302D" transform="translate(83,75)"/>
<path d="M0 0 C0.66 0.99 1.32 1.98 2 3 C2.99 3 3.98 3 5 3 C5 4.98 5 6.96 5 9 C3.68 8.67 2.36 8.34 1 8 C1 6.68 1 5.36 1 4 C0.34 3.67 -0.32 3.34 -1 3 C-0.67 2.01 -0.34 1.02 0 0 Z " fill="#A67654" transform="translate(85,52)"/>
<path d="M0 0 C0.99 0 1.98 0 3 0 C3.33 0.99 3.66 1.98 4 3 C2.5625 5.1875 2.5625 5.1875 1 7 C0.01 6.67 -0.98 6.34 -2 6 C-1.49396008 3.83125748 -1.00016187 2.00032373 0 0 Z " fill="#291C19" transform="translate(95,45)"/>
<path d="M0 0 C-0.66 1.32 -1.32 2.64 -2 4 C-2 3.01 -2 2.02 -2 1 C-3.98 1.33 -5.96 1.66 -8 2 C-8.33 1.01 -8.66 0.02 -9 -1 C-5.79937313 -2.60031344 -3.27728194 -1.03173691 0 0 Z " fill="#CC9A7C" transform="translate(31,195)"/>
<path d="M0 0 C1.32 0 2.64 0 4 0 C5 3 5 3 4 6 C3.01 5.67 2.02 5.34 1 5 C0.67 3.35 0.34 1.7 0 0 Z " fill="#685A56" transform="translate(58,167)"/>
<path d="M0 0 C0.33 0 0.66 0 1 0 C1.33 2.64 1.66 5.28 2 8 C-0.475 7.01 -0.475 7.01 -3 6 C-2.01 4.02 -1.02 2.04 0 0 Z " fill="#544C46" transform="translate(54,155)"/>
<path d="M0 0 C0.33 0.66 0.66 1.32 1 2 C1.99 2.33 2.98 2.66 4 3 C4 3.66 4 4.32 4 5 C2.35 5 0.7 5 -1 5 C-1.33 3.68 -1.66 2.36 -2 1 C-1.34 0.67 -0.68 0.34 0 0 Z " fill="#2F2220" transform="translate(92,137)"/>
<path d="M0 0 C-2.93720508 1.52299523 -5.9168649 2.80100302 -9 4 C-9.33 3.01 -9.66 2.02 -10 1 C-6.21812119 -0.83691257 -4.05431692 -1.15837626 0 0 Z " fill="#4E443F" transform="translate(110,104)"/>
<path d="M0 0 C0.66 0 1.32 0 2 0 C0.52307692 6.64615385 0.52307692 6.64615385 -2.125 8.4375 C-2.74375 8.623125 -3.3625 8.80875 -4 9 C-4 7.68 -4 6.36 -4 5 C-3.01 4.34 -2.02 3.68 -1 3 C-0.67 2.01 -0.34 1.02 0 0 Z " fill="#5B4B44" transform="translate(61,96)"/>
<path d="M0 0 C1.65 0 3.3 0 5 0 C5.33 1.32 5.66 2.64 6 4 C4.35 4 2.7 4 1 4 C0.67 2.68 0.34 1.36 0 0 Z " fill="#A97956" transform="translate(66,62)"/>
<path d="M0 0 C1.65 0 3.3 0 5 0 C5 0.99 5 1.98 5 3 C3.02 3.33 1.04 3.66 -1 4 C-0.67 2.68 -0.34 1.36 0 0 Z " fill="#291E1D" transform="translate(60,178)"/>
<path d="M0 0 C0.99 0.33 1.98 0.66 3 1 C2.34 3.97 1.68 6.94 1 10 C0.10305206 6.41220825 -0.08304117 3.65381163 0 0 Z " fill="#24160E" transform="translate(80,129)"/>
<path d="M0 0 C1.65 0 3.3 0 5 0 C5 3 5 3 3 5.1875 C2.34 5.785625 1.68 6.38375 1 7 C0.67 4.69 0.34 2.38 0 0 Z " fill="#4E413A" transform="translate(70,84)"/>
<path d="M0 0 C0 0.33 0 0.66 0 1 C-0.928125 0.95875 -1.85625 0.9175 -2.8125 0.875 C-6.15809719 0.72863661 -6.15809719 0.72863661 -9 3 C-8.67 1.68 -8.34 0.36 -8 -1 C-4.59745511 -2.2151946 -3.06748874 -1.86240388 0 0 Z " fill="#CB9673" transform="translate(77,55)"/>
<path d="M0 0 C1.98 0.495 1.98 0.495 4 1 C3.75 3.375 3.75 3.375 3 6 C0.9375 7.3125 0.9375 7.3125 -1 8 C-0.835 6.865625 -0.67 5.73125 -0.5 4.5625 C-0.14367797 2.28867481 -0.14367797 2.28867481 0 0 Z " fill="#C4A48F" transform="translate(93,52)"/>
<path d="M0 0 C0.66 0.33 1.32 0.66 2 1 C2 1.66 2 2.32 2 3 C2.99 3.33 3.98 3.66 5 4 C4.01 5.485 4.01 5.485 3 7 C1.68 5.68 0.36 4.36 -1 3 C-0.67 2.01 -0.34 1.02 0 0 Z " fill="#30261D" transform="translate(48,187)"/>
<path d="M0 0 C5.75 -0.125 5.75 -0.125 8 1 C8 1.66 8 2.32 8 3 C5.6568787 2.74438677 3.32156597 2.40729228 1 2 C0.67 1.34 0.34 0.68 0 0 Z " fill="#2E211C" transform="translate(80,152)"/>
<path d="M0 0 C1.31571603 0.2547514 2.62760376 0.52934141 3.9375 0.8125 C4.66839844 0.96332031 5.39929688 1.11414063 6.15234375 1.26953125 C6.76207031 1.51058594 7.37179688 1.75164062 8 2 C8.33 2.99 8.66 3.98 9 5 C5.51694958 4.35499066 2.93797836 2.95865224 0 1 C0 0.67 0 0.34 0 0 Z " fill="#3D2F2C" transform="translate(87,127)"/>
<path d="M0 0 C0.33 0.99 0.66 1.98 1 3 C1.66 3 2.32 3 3 3 C2.67 4.32 2.34 5.64 2 7 C2 6.34 2 5.68 2 5 C0.35 5.33 -1.3 5.66 -3 6 C-2.01 4.02 -1.02 2.04 0 0 Z " fill="#241914" transform="translate(60,119)"/>
<path d="M0 0 C0.99 1.32 1.98 2.64 3 4 C2.34 5.32 1.68 6.64 1 8 C-1 6 -1 6 -2 4 C-1.0625 1.875 -1.0625 1.875 0 0 Z " fill="#65564F" transform="translate(84,102)"/>
<path d="M0 0 C0.99 0.33 1.98 0.66 3 1 C3.33 2.65 3.66 4.3 4 6 C2.68 6.33 1.36 6.66 0 7 C0 4.69 0 2.38 0 0 Z " fill="#3A2A24" transform="translate(90,45)"/>
<path d="M0 0 C1.65 0.99 3.3 1.98 5 3 C4.34 4.32 3.68 5.64 3 7 C0 2.25 0 2.25 0 0 Z " fill="#30241F" transform="translate(87,147)"/>
<path d="M0 0 C0.66 0 1.32 0 2 0 C1.67 2.97 1.34 5.94 1 9 C-0.625 7.3125 -0.625 7.3125 -2 5 C-1.1875 2.25 -1.1875 2.25 0 0 Z " fill="#160E0A" transform="translate(53,132)"/>
<path d="M0 0 C0.99 0 1.98 0 3 0 C2.34 3.3 1.68 6.6 1 10 C0.67 10 0.34 10 0 10 C0.020625 9.05125 0.04125 8.1025 0.0625 7.125 C0.22551826 4.09333717 0.22551826 4.09333717 -1 2 C-0.67 1.34 -0.34 0.68 0 0 Z " fill="#3D312C" transform="translate(58,103)"/>
<path d="M0 0 C2.475 0.99 2.475 0.99 5 2 C5 2.99 5 3.98 5 5 C5.66 5.33 6.32 5.66 7 6 C3.75728494 5.4409112 2.06942576 4.5867822 0 2 C0 1.34 0 0.68 0 0 Z " fill="#BDB3AD" transform="translate(99,76)"/>
<path d="M0 0 C1.65 0 3.3 0 5 0 C5 2 5 2 3.625 3.625 C2 5 2 5 0 5 C0 3.35 0 1.7 0 0 Z " fill="#C57E55" transform="translate(80,63)"/>
<path d="M0 0 C-0.33 1.32 -0.66 2.64 -1 4 C-3.31 3.67 -5.62 3.34 -8 3 C-3.5 0 -3.5 0 0 0 Z " fill="#C08B66" transform="translate(85,52)"/>
<path d="M0 0 C0.33 0.66 0.66 1.32 1 2 C2.65 2 4.3 2 6 2 C6.33 2.99 6.66 3.98 7 5 C4 5 4 5 1 3 C0.67 3.66 0.34 4.32 0 5 C0 3.35 0 1.7 0 0 Z " fill="#7D4F30" transform="translate(58,50)"/>
<path d="M0 0 C1.485 0.99 1.485 0.99 3 2 C3.1875 5.125 3.1875 5.125 3 8 C2.67 7.34 2.34 6.68 2 6 C1.01 5.67 0.02 5.34 -1 5 C-0.67 3.35 -0.34 1.7 0 0 Z " fill="#382F28" transform="translate(96,39)"/>
</svg>
